<?xml version="1.0" encoding="utf-8"?>
<!-- Generator: Adobe Illustrator 27.0.0, SVG Export Plug-In . SVG Version: 6.00 Build 0)  -->
<svg version="1.1" xmlns="http://www.w3.org/2000/svg" xmlns:xlink="http://www.w3.org/1999/xlink" x="0px" y="0px"
	 viewBox="0 0 500 500" style="enable-background:new 0 0 500 500;" xml:space="preserve">
<style type="text/css">
	.st0{display:none;}
	.st1{display:inline;}
	.st2{fill:#F5F5F5;}
	.st3{fill:#EBEBEB;}
	.st4{fill:#FFFFFF;}
	.st5{opacity:0.5;}
	.st6{fill:#FAFAFA;}
	.st7{fill:#E0E0E0;}
	.st8{fill:#263238;}
	.st9{fill:#8E62F1;}
	.st10{opacity:0.1;}
	.st11{opacity:0.2;}
	.st12{opacity:0.3;}
	.st13{fill:#455A64;}
	.st14{fill:#AE7461;}
	.st15{fill:#6F4439;}
</style>
<g id="Background_Complete">
</g>
<g id="Background_Simple" class="st0">
	<g class="st1">
		<path class="st2" d="M427.5,53.7l0.6,1.5c5.1,12.5,3.2,26.8-5.4,37.1c-1.1,1.3-2.3,2.6-3.6,3.7c-9.3,8.2-23,11.3-35.1,7.8
			c-7.1-2-13.9-6.2-21.3-5.5c-9.5,0.9-16.1,9.4-21.5,17.3c-5.4,7.8-12,16.4-21.6,17.2c-6,0.5-11.9-2.3-16.5-6.1
			c-12.3-10.2-17.2-27.6-14.5-43.1c2.7-15.6,12.1-29.3,23.8-39.9c16.4-14.8,38.3-24.3,60.5-23.2C395.2,21.4,417.3,33.9,427.5,53.7z"
			/>
	</g>
	<g class="st1">
		<path class="st2" d="M135.1,445.5l1.2-1.1c9.8-9.3,14-23.1,10.4-36c-0.5-1.7-1.1-3.3-1.8-4.9c-5.1-11.3-16.3-19.8-28.7-21.6
			c-7.3-1.1-15.3-0.1-21.7-3.7c-8.3-4.7-10.8-15.2-12.5-24.6c-1.7-9.4-4.2-19.9-12.6-24.6c-5.2-2.9-11.7-2.8-17.6-1.3
			c-15.4,4.2-27,18-31,33.3c-4,15.3-1.1,31.7,5.2,46.2c8.8,20.3,24.9,37.9,45.6,46.1C92.3,461.6,117.7,459.4,135.1,445.5z"/>
	</g>
	<g class="st1">
		
			<ellipse transform="matrix(0.2279 -0.9737 0.9737 0.2279 -93.1995 330.3701)" class="st2" cx="161.7" cy="224" rx="19.1" ry="19.1"/>
	</g>
</g>
<g id="Table">
</g>
<g id="Coins">
</g>
<g id="Documents">
</g>
<g id="Calendar">
</g>
<g id="Screen_2">
</g>
<g id="Screen1">
</g>
<g id="Character_00000081613160092124445400000018203611277222400949_">
	<g>
		<g>
			<g>
				<g>
					<path class="st3" d="M383.9,121.5l-98-20.7c-2.5-0.5-4.1-3-3.6-5.5l12.8-60.5c0.5-2.5,3-4.1,5.5-3.6l98,20.7
						c2.5,0.5,4.1,3,3.6,5.5l-12.8,60.5C388.9,120.4,386.4,122,383.9,121.5z"/>
				</g>
			</g>
			<g>
				<g>
					<path class="st4" d="M296.2,76.7l-1.3,6l-0.6-0.1l1.1-5.4l-1.4-0.3l0.1-0.6L296.2,76.7z"/>
				</g>
			</g>
			<g>
				<g>
					<path class="st4" d="M301.1,83.4L301,84l-4.2-0.9l0.1-0.4l3-1.9c0.8-0.5,1-0.9,1.1-1.3c0.1-0.7-0.3-1.2-1.2-1.4
						c-0.6-0.2-1.3,0-1.8,0.3l-0.4-0.5c0.7-0.5,1.5-0.6,2.3-0.4c1.2,0.3,1.8,1,1.6,2.1c-0.1,0.6-0.4,1-1.4,1.7l-2.4,1.6L301.1,83.4z
						"/>
				</g>
			</g>
			<g>
				<g>
					<path class="st4" d="M307.6,83.7l-1.2-0.3l-0.3,1.6l-0.6-0.1l0.3-1.6l-3.4-0.7l0.1-0.5l4-3.3l0.7,0.1l-3.9,3.2l2.6,0.5l0.3-1.4
						l0.6,0.1l-0.3,1.4l1.2,0.3L307.6,83.7z"/>
				</g>
			</g>
			<g>
				<g>
					<path class="st4" d="M316.7,85.7l-1.2-0.3l-0.3,1.6l-0.6-0.1l0.3-1.6l-3.4-0.7l0.1-0.4l4-3.3l0.7,0.1l-3.9,3.2l2.6,0.5l0.3-1.4
						l0.6,0.1l-0.3,1.4l1.2,0.3L316.7,85.7z"/>
				</g>
			</g>
			<g>
				<g>
					<path class="st4" d="M322,86.6c-0.2,1-1.1,1.7-2.5,1.3c-0.8-0.1-1.5-0.6-2-1.2l0.4-0.4c0.4,0.6,1,0.9,1.7,1.1
						c1,0.2,1.6-0.2,1.8-0.9c0.2-0.7-0.2-1.3-1.7-1.7l-1.3-0.3l0.9-2.9l3.3,0.7l-0.1,0.6l-2.7-0.6l-0.6,1.8l0.8,0.2
						C321.6,84.7,322.2,85.5,322,86.6z"/>
				</g>
			</g>
			<g>
				<g>
					<path class="st4" d="M327.8,87.8c-0.2,1.1-1.3,1.6-2.4,1.4c-1.6-0.3-2.2-1.6-1.8-3.5c0.4-2,1.8-2.8,3.4-2.5
						c0.5,0.1,1,0.3,1.3,0.6l-0.4,0.4c-0.3-0.3-0.7-0.5-1.1-0.5c-1.3-0.3-2.3,0.4-2.6,2c0,0.1-0.1,0.3-0.1,0.5
						c0.5-0.6,1.3-0.8,2-0.6C327.4,85.8,328.1,86.7,327.8,87.8z M327.2,87.7c0.2-0.8-0.3-1.4-1.2-1.6c-0.7-0.2-1.5,0.2-1.8,0.9
						c0,0,0,0.1,0,0.1c-0.1,0.7,0.3,1.4,1.3,1.6c0.7,0.2,1.4-0.1,1.7-0.8C327.2,87.8,327.2,87.7,327.2,87.7L327.2,87.7z"/>
				</g>
			</g>
			<g>
				<g>
					<path class="st4" d="M336,89.6c-0.2,1-1.1,1.6-2.5,1.3c-0.8-0.1-1.5-0.6-2-1.2l0.4-0.4c0.4,0.6,1,1,1.7,1.1
						c1,0.2,1.6-0.2,1.8-0.9c0.1-0.7-0.2-1.3-1.4-1.5l-0.4-0.1l0.1-0.4l2.1-1.7l-3-0.6l0.1-0.6l3.8,0.8l-0.1,0.4l-2.1,1.8
						C335.7,87.8,336.2,88.6,336,89.6z"/>
				</g>
			</g>
			<g>
				<g>
					<path class="st4" d="M342,90.8c-0.2,1.1-1.3,1.6-2.4,1.4c-1.6-0.3-2.2-1.6-1.8-3.5c0.4-2,1.8-2.8,3.4-2.5
						c0.5,0.1,1,0.3,1.3,0.6l-0.3,0.4c-0.3-0.3-0.7-0.5-1.1-0.5c-1.3-0.3-2.3,0.4-2.6,2c0,0.2-0.1,0.3-0.1,0.5
						c0.5-0.6,1.3-0.8,2-0.6C341.5,88.8,342.2,89.7,342,90.8z M341.4,90.7c0.2-0.8-0.3-1.4-1.2-1.6c-0.7-0.2-1.5,0.2-1.8,0.9
						c0,0,0,0.1,0,0.1c-0.1,0.7,0.3,1.4,1.3,1.6c0.7,0.2,1.5-0.2,1.7-0.9C341.3,90.7,341.3,90.7,341.4,90.7L341.4,90.7z"/>
				</g>
			</g>
			<g>
				<g>
					<path class="st4" d="M348.3,87.8l-0.1,0.4l-3.7,5l-0.7-0.1l3.6-4.9l-3.1-0.6l-0.2,1.1l-0.6-0.1l0.3-1.7L348.3,87.8z"/>
				</g>
			</g>
			<g>
				<g>
					<path class="st4" d="M356.8,89.5l-0.1,0.4l-3.6,5l-0.7-0.1l3.6-4.9l-3.1-0.6l-0.2,1.1l-0.6-0.1l0.4-1.7L356.8,89.5z"/>
				</g>
			</g>
			<g>
				<g>
					<path class="st4" d="M361.7,95.1c-0.2,1.1-1.3,1.5-2.7,1.2c-1.4-0.3-2.2-1.1-1.9-2.2c0.1-0.7,0.7-1.2,1.4-1.2
						c-0.5-0.3-0.8-0.9-0.7-1.5c0.2-1,1.2-1.4,2.4-1.1c1.3,0.3,2,1,1.8,2c-0.1,0.6-0.6,1-1.2,1.1C361.5,93.7,361.9,94.4,361.7,95.1z
						 M361.1,94.9c0.2-0.7-0.4-1.3-1.4-1.5c-1.1-0.2-1.8,0.1-1.9,0.8c-0.2,0.7,0.4,1.3,1.4,1.5C360.2,96,360.9,95.7,361.1,94.9
						L361.1,94.9z M359.8,92.9c0.9,0.2,1.6-0.1,1.7-0.7c0.1-0.6-0.4-1.2-1.2-1.4c-0.9-0.2-1.6,0.1-1.7,0.8S358.8,92.7,359.8,92.9z"
						/>
				</g>
			</g>
			<g>
				<g>
					<path class="st4" d="M367.8,94.9c-0.4,2-1.8,2.8-3.4,2.5c-0.5-0.1-1-0.3-1.3-0.6l0.4-0.4c0.3,0.3,0.7,0.5,1.1,0.5
						c1.3,0.3,2.3-0.4,2.6-2c0-0.1,0.1-0.3,0.1-0.5c-0.5,0.6-1.3,0.8-2,0.6c-1.2-0.2-1.9-1.1-1.6-2.2c0.2-1.1,1.3-1.6,2.4-1.4
						C367.6,91.8,368.2,93,367.8,94.9z M367.2,93.6c0.1-0.7-0.3-1.4-1.3-1.6c-0.7-0.2-1.5,0.1-1.7,0.8c0,0,0,0.1,0,0.1
						c-0.2,0.8,0.3,1.4,1.2,1.6C366.1,94.8,366.9,94.4,367.2,93.6C367.2,93.6,367.2,93.6,367.2,93.6L367.2,93.6z"/>
				</g>
			</g>
			<g>
				<g>
					<path class="st4" d="M374.4,93.3l-1.3,5.9l-0.6-0.1l1.1-5.4l-1.4-0.3l0.1-0.6L374.4,93.3z"/>
				</g>
			</g>
			<g>
				<g>
					<path class="st4" d="M379.4,100l-0.1,0.6l-4.2-0.9l0.1-0.4l3-1.9c0.8-0.5,1-0.9,1.1-1.3c0.1-0.7-0.3-1.2-1.2-1.4
						c-0.6-0.2-1.3-0.1-1.8,0.3l-0.4-0.5c0.7-0.5,1.5-0.6,2.3-0.4c1.2,0.3,1.8,1,1.6,2c-0.1,0.6-0.4,1-1.4,1.7l-2.4,1.6L379.4,100z"
						/>
				</g>
			</g>
			<g>
				<g>
					<path class="st4" d="M385,99.9c-0.2,1-1.1,1.6-2.5,1.3c-0.8-0.1-1.5-0.6-2-1.2l0.4-0.4c0.4,0.6,1,1,1.7,1.1
						c1,0.2,1.6-0.2,1.8-0.9c0.1-0.7-0.3-1.3-1.4-1.5l-0.4-0.1l0.1-0.5l2.1-1.7l-3-0.6l0.1-0.6l3.8,0.8l-0.1,0.4l-2.1,1.8
						C384.7,98.2,385.2,99,385,99.9z"/>
				</g>
			</g>
			<g>
				<g>
					
						<rect x="360.3" y="78.4" transform="matrix(0.2066 -0.9784 0.9784 0.2066 186.3625 435.2675)" class="st4" width="2.6" height="48.7"/>
				</g>
			</g>
			<g>
				<g>
					
						<rect x="370.8" y="97.8" transform="matrix(0.2066 -0.9784 0.9784 0.2066 187.2625 451.5921)" class="st4" width="2.6" height="25"/>
				</g>
			</g>
			<g class="st5">
				<g>
					<g>
						<path class="st6" d="M298.6,56.8l14.6,3.1c1.5,0.3,2.4,1.8,2.1,3.2l-2.1,9.6c-0.3,1.5-1.8,2.4-3.2,2.1l-14.6-3.1
							c-1.5-0.3-2.4-1.8-2.1-3.2l2.1-9.6C295.7,57.4,297.1,56.5,298.6,56.8z"/>
					</g>
				</g>
			</g>
			<g>
				<g>
					<path class="st7" d="M294.5,66.7l0.2-1l10.3,2.2c1.2,0.3,2.4-0.5,2.6-1.7c0.3-1.2-0.5-2.4-1.7-2.6l-10.3-2.2l0.2-1l10.3,2.2
						c1.7,0.4,2.8,2.1,2.3,3.8c-0.4,1.6-2,2.7-3.7,2.4L294.5,66.7z"/>
				</g>
			</g>
			<g>
				<g>
					
						<rect x="311.1" y="63.5" transform="matrix(0.2075 -0.9782 0.9782 0.2075 181.3102 357.9613)" class="st7" width="1" height="7.2"/>
				</g>
			</g>
			<g>
				<g>
					
						<rect x="324.7" y="25.5" transform="matrix(0.2066 -0.9784 0.9784 0.2066 208.7436 360.9642)" class="st4" width="4.5" height="52.5"/>
				</g>
			</g>
			<g>
				<g>
					<path class="st4" d="M381.9,58l7,1.5c0.9,0.2,1.5,1.1,1.3,2l-1.5,7c-0.2,0.9-1.1,1.5-2,1.3l-7-1.5c-0.9-0.2-1.5-1.1-1.3-2
						l1.5-7C380,58.4,381,57.8,381.9,58z"/>
				</g>
			</g>
		</g>
		<g>
			<g>
				<g>
					<g>
						<g>
							<g>
								<path class="st2" d="M399.1,375.8c-7.6,13.3-24.5,17.8-37.8,10.2c-13.3-7.6-17.9-24.5-10.3-37.8
									c7.6-13.3,24.5-17.8,37.8-10.2C402,345.6,406.7,362.5,399.1,375.8z"/>
							</g>
						</g>
					</g>
				</g>
				<g>
					<g>
						<g>
							<g>
								<path class="st3" d="M393.3,372.5c-5.8,10.1-18.7,13.6-28.8,7.8c-10.1-5.8-13.6-18.7-7.9-28.8c5.8-10.1,18.7-13.6,28.8-7.8
									C395.6,349.5,399.1,362.4,393.3,372.5z"/>
							</g>
						</g>
					</g>
				</g>
				<g>
					<g>
						<g>
							<g>
								<g>
									<path class="st7" d="M393.7,371.9c-0.1-0.1,0.3-0.9,0.8-2.5c0.5-1.6,1.1-3.9,1.1-6.8c0-1.5-0.1-3.1-0.5-4.7
										c-0.4-1.7-1-3.4-1.9-5.1c-0.4-0.8-0.9-1.7-1.5-2.5c-0.6-0.8-1.2-1.6-2-2.3c-0.7-0.7-1.5-1.5-2.4-2.1
										c-0.9-0.6-1.8-1.2-2.7-1.8c-1-0.5-2-0.9-3-1.3c-1-0.4-2-0.6-3.1-0.8c-1-0.2-2-0.3-3-0.3c-1,0-2,0-2.9,0.1
										c-1.9,0.2-3.7,0.7-5.3,1.3c-1.6,0.6-3,1.4-4.2,2.2c-2.4,1.6-4,3.4-5,4.7c-1,1.3-1.5,2.1-1.6,2c-0.1,0,0.2-0.9,1.1-2.4
										c0.9-1.4,2.4-3.4,4.9-5.3c1.2-0.9,2.7-1.8,4.4-2.5c1.7-0.7,3.6-1.3,5.6-1.5c1-0.1,2.1-0.2,3.1-0.2c1.1,0,2.2,0.1,3.3,0.3
										c1.1,0.2,2.2,0.5,3.3,0.8c1.1,0.4,2.2,0.8,3.2,1.4c1,0.6,2,1.2,3,1.9c0.9,0.7,1.8,1.5,2.5,2.3c0.8,0.8,1.5,1.7,2.1,2.6
										c0.6,0.9,1.1,1.8,1.6,2.7c0.9,1.8,1.5,3.7,1.9,5.5c0.3,1.8,0.4,3.5,0.3,5c-0.2,3.1-1,5.5-1.7,7
										C394.3,371.2,393.7,372,393.7,371.9z"/>
								</g>
							</g>
						</g>
					</g>
				</g>
			</g>
			<g>
				<g>
					<g>
						<g>
							<g>
								<g>
									<path class="st7" d="M370.8,374.1l-1.8,3.2l-2.9-1.6l1.7-3.1c-2.8-1.7-5-4.2-5.9-6.3l3.5-2.6c0.8,1.9,2.5,3.8,4.4,5.1
										l2.7-4.8c-2.8-2.5-5.7-5.6-3.5-9.7c1.7-3,5.4-4.4,10.2-2.4l1.8-3.2l2.9,1.6l-1.7,3.1c2.1,1.4,3.8,3.1,4.9,5l-3.4,2.7
										c-1-1.6-2.2-3-3.6-3.9l-2.7,4.9c2.8,2.5,5.7,5.5,3.5,9.6C379.2,374.7,375.6,376.1,370.8,374.1z M375,359.8l2.3-4.1
										c-1.7-0.5-2.8,0-3.3,0.9C373.4,357.7,373.9,358.7,375,359.8z M376.1,369.5c0.6-1,0-2-1-3.1l-2.2,4
										C374.5,370.8,375.6,370.4,376.1,369.5z"/>
								</g>
							</g>
						</g>
					</g>
				</g>
			</g>
		</g>
		<g>
			<g>
				<g>
					<g>
						<g>
							<g>
								<path class="st2" d="M479.1,255.7c-7.6,13.3-24.5,17.8-37.8,10.2c-13.3-7.6-17.9-24.5-10.3-37.8
									c7.6-13.3,24.5-17.8,37.8-10.2C482.1,225.5,486.7,242.4,479.1,255.7z"/>
							</g>
						</g>
					</g>
				</g>
				<g>
					<g>
						<g>
							<g>
								<path class="st3" d="M473.4,252.4c-5.8,10.1-18.7,13.6-28.8,7.8c-10.1-5.8-13.6-18.7-7.9-28.8c5.8-10.1,18.7-13.6,28.8-7.8
									C475.7,229.4,479.2,242.3,473.4,252.4z"/>
							</g>
						</g>
					</g>
				</g>
				<g>
					<g>
						<g>
							<g>
								<g>
									<path class="st7" d="M473.7,251.8c-0.1-0.1,0.3-0.9,0.8-2.5c0.5-1.6,1.1-3.9,1.1-6.8c0-1.5-0.1-3.1-0.5-4.7
										c-0.4-1.7-1-3.4-1.9-5.1c-0.4-0.8-0.9-1.7-1.5-2.5c-0.6-0.8-1.2-1.6-2-2.3c-0.7-0.7-1.5-1.5-2.4-2.1
										c-0.9-0.6-1.8-1.2-2.7-1.8c-1-0.5-2-0.9-3-1.3c-1-0.4-2-0.6-3.1-0.8c-1-0.2-2-0.3-3-0.3c-1,0-2,0-2.9,0.1
										c-1.9,0.2-3.7,0.7-5.3,1.3c-1.6,0.6-3,1.4-4.2,2.2c-2.4,1.6-4,3.4-5,4.7c-1,1.3-1.5,2.1-1.6,2c-0.1,0,0.2-0.9,1.1-2.4
										c0.9-1.4,2.4-3.4,4.9-5.3c1.2-0.9,2.7-1.8,4.4-2.5c1.7-0.7,3.6-1.3,5.6-1.5c1-0.1,2.1-0.2,3.1-0.2c1.1,0,2.2,0.1,3.3,0.3
										c1.1,0.2,2.2,0.5,3.3,0.8c1.1,0.4,2.2,0.8,3.2,1.4c1,0.6,2,1.2,3,1.9c0.9,0.7,1.8,1.5,2.5,2.3c0.8,0.8,1.5,1.7,2.1,2.6
										c0.6,0.9,1.1,1.8,1.6,2.7c0.9,1.8,1.5,3.7,1.9,5.5c0.3,1.8,0.4,3.5,0.3,5c-0.2,3.1-1,5.5-1.7,7
										C474.4,251.1,473.8,251.9,473.7,251.8z"/>
								</g>
							</g>
						</g>
					</g>
				</g>
			</g>
			<g>
				<g>
					<g>
						<g>
							<g>
								<g>
									<path class="st7" d="M450.9,254l-1.8,3.2l-2.9-1.6l1.7-3.1c-2.8-1.7-5-4.2-5.9-6.3l3.5-2.6c0.8,1.9,2.5,3.8,4.4,5.1
										l2.7-4.8c-2.8-2.5-5.7-5.6-3.5-9.7c1.7-3,5.4-4.4,10.2-2.4l1.8-3.2l2.9,1.6l-1.7,3.1c2.1,1.4,3.8,3.1,4.9,5l-3.4,2.7
										c-1-1.6-2.2-3-3.6-3.9l-2.7,4.9c2.8,2.5,5.7,5.5,3.5,9.6C459.3,254.6,455.7,256,450.9,254z M455,239.7l2.3-4.1
										c-1.7-0.5-2.8,0-3.3,0.9C453.4,237.6,454,238.6,455,239.7z M456.1,249.4c0.6-1,0-2-1-3.1l-2.2,4
										C454.6,250.7,455.6,250.3,456.1,249.4z"/>
								</g>
							</g>
						</g>
					</g>
				</g>
			</g>
		</g>
		<g>
			<g>
				<g>
					<g>
						<g>
							<g>
								<path class="st2" d="M208.5,80.3c-8.9,15.6-28.8,20.9-44.4,12c-15.6-8.9-21-28.8-12.1-44.3c8.9-15.6,28.8-20.9,44.4-12
									C212,44.9,217.4,64.7,208.5,80.3z"/>
							</g>
						</g>
					</g>
				</g>
				<g>
					<g>
						<g>
							<g>
								<path class="st3" d="M201.7,76.4c-6.8,11.9-21.9,15.9-33.8,9.1c-11.9-6.8-16-21.9-9.2-33.8c6.8-11.9,21.9-15.9,33.8-9.1
									C204.4,49.4,208.5,64.6,201.7,76.4z"/>
							</g>
						</g>
					</g>
				</g>
				<g>
					<g>
						<g>
							<g>
								<g>
									<path class="st7" d="M202.1,75.8c-0.1-0.1,0.3-1.1,0.9-2.9c0.6-1.8,1.3-4.6,1.3-8c0-1.7-0.2-3.6-0.6-5.5
										c-0.5-2-1.1-4-2.2-6c-0.5-1-1.1-2-1.8-2.9c-0.7-1-1.4-1.9-2.3-2.8c-0.9-0.9-1.8-1.7-2.8-2.5c-1-0.8-2.1-1.4-3.2-2.1
										c-1.1-0.6-2.3-1.1-3.5-1.5c-1.2-0.4-2.4-0.7-3.6-0.9c-1.2-0.2-2.4-0.3-3.6-0.4c-1.2,0-2.3,0-3.4,0.1
										c-2.2,0.2-4.3,0.8-6.2,1.5c-1.9,0.7-3.5,1.6-4.9,2.6c-2.8,1.9-4.7,4-5.9,5.6c-1.2,1.5-1.8,2.5-1.9,2.4
										c-0.1-0.1,0.3-1.1,1.3-2.8c1-1.7,2.8-4,5.7-6.2c1.4-1.1,3.2-2.1,5.1-3c2-0.8,4.2-1.5,6.6-1.8c1.2-0.2,2.4-0.2,3.7-0.2
										c1.3,0,2.6,0.1,3.9,0.4c1.3,0.2,2.6,0.5,3.9,1c1.3,0.4,2.6,1,3.8,1.6c1.2,0.7,2.4,1.4,3.5,2.2c1.1,0.8,2.1,1.7,3,2.7
										c0.9,0.9,1.7,2,2.4,3c0.7,1,1.3,2.1,1.9,3.2c1.1,2.2,1.8,4.4,2.2,6.5c0.4,2.1,0.5,4.1,0.4,5.9c-0.2,3.6-1.1,6.4-1.9,8.2
										C202.9,74.9,202.2,75.8,202.1,75.8z"/>
								</g>
							</g>
						</g>
					</g>
				</g>
			</g>
			<g>
				<g>
					<g>
						<g>
							<g>
								<g>
									<path class="st7" d="M175.3,78.3l-2.1,3.8l-3.4-1.9l2-3.7c-3.2-2.1-5.9-4.9-6.9-7.4l4.1-3.1c1,2.2,2.9,4.4,5.2,6l3.1-5.6
										c-3.2-3-6.7-6.5-4.1-11.4c2-3.6,6.3-5.2,11.9-2.9l2.1-3.7l3.4,1.9l-2,3.7c2.4,1.6,4.5,3.6,5.7,5.9l-4,3.2
										c-1.2-1.9-2.6-3.5-4.2-4.6l-3.2,5.7c3.3,3,6.7,6.5,4,11.2C185.2,79,181,80.6,175.3,78.3z M180.2,61.6l2.7-4.8
										c-2-0.6-3.3,0-3.9,1.1C178.3,59.1,179,60.3,180.2,61.6z M181.5,72.9c0.7-1.2,0-2.4-1.1-3.7l-2.6,4.7
										C179.7,74.4,180.9,74,181.5,72.9z"/>
								</g>
							</g>
						</g>
					</g>
				</g>
			</g>
		</g>
		<g>
			<g>
				<g>
					<g>
						<g>
							<g>
								<path class="st2" d="M85.8,186.3c-8.9,15.6-28.8,20.9-44.4,12c-15.6-8.9-21-28.8-12.1-44.3c8.9-15.6,28.8-20.9,44.4-12
									C89.3,150.9,94.7,170.8,85.8,186.3z"/>
							</g>
						</g>
					</g>
				</g>
				<g>
					<g>
						<g>
							<g>
								<path class="st3" d="M79.1,182.5c-6.8,11.9-21.9,15.9-33.8,9.1c-11.9-6.8-16-21.9-9.2-33.8c6.8-11.9,21.9-15.9,33.8-9.1
									C81.8,155.5,85.9,170.6,79.1,182.5z"/>
							</g>
						</g>
					</g>
				</g>
				<g>
					<g>
						<g>
							<g>
								<g>
									<path class="st7" d="M79.5,181.8c-0.1-0.1,0.3-1.1,0.9-2.9c0.6-1.8,1.3-4.6,1.3-8c0-1.7-0.2-3.6-0.6-5.5
										c-0.5-2-1.1-4-2.2-6c-0.5-1-1.1-2-1.8-2.9c-0.7-1-1.4-1.9-2.3-2.8c-0.9-0.9-1.8-1.7-2.8-2.5c-1-0.8-2.1-1.4-3.2-2.1
										c-1.1-0.6-2.3-1.1-3.5-1.5c-1.2-0.4-2.4-0.7-3.6-0.9c-1.2-0.2-2.4-0.3-3.6-0.4c-1.2,0-2.3,0-3.4,0.1
										c-2.2,0.2-4.3,0.8-6.2,1.5c-1.9,0.7-3.5,1.6-4.9,2.6c-2.8,1.9-4.7,4-5.9,5.6c-1.2,1.5-1.8,2.5-1.9,2.4
										c-0.1-0.1,0.3-1.1,1.3-2.8c1-1.7,2.8-4,5.7-6.2c1.4-1.1,3.2-2.1,5.1-3c2-0.8,4.2-1.5,6.6-1.8c1.2-0.2,2.4-0.2,3.7-0.2
										c1.3,0,2.6,0.1,3.9,0.4c1.3,0.2,2.6,0.5,3.9,1c1.3,0.4,2.6,1,3.8,1.6c1.2,0.7,2.4,1.4,3.5,2.2c1.1,0.8,2.1,1.7,3,2.7
										c0.9,0.9,1.7,2,2.4,3c0.7,1,1.3,2.1,1.9,3.2c1.1,2.2,1.8,4.4,2.2,6.5c0.4,2.1,0.5,4.1,0.4,5.9c-0.2,3.6-1.1,6.4-1.9,8.2
										C80.3,181,79.6,181.8,79.5,181.8z"/>
								</g>
							</g>
						</g>
					</g>
				</g>
			</g>
			<g>
				<g>
					<g>
						<g>
							<g>
								<g>
									<path class="st7" d="M52.7,184.4l-2.1,3.8l-3.4-1.9l2-3.7c-3.2-2.1-5.9-4.9-6.9-7.4l4.1-3.1c1,2.2,2.9,4.4,5.2,6l3.1-5.6
										c-3.2-3-6.7-6.5-4.1-11.4c2-3.6,6.3-5.2,11.9-2.9l2.1-3.7l3.4,1.9l-2,3.7c2.4,1.6,4.5,3.6,5.7,5.9l-4,3.2
										c-1.2-1.9-2.6-3.5-4.2-4.6l-3.2,5.7c3.3,3,6.7,6.5,4,11.2C62.6,185,58.3,186.7,52.7,184.4z M57.6,167.6l2.7-4.8
										c-2-0.6-3.3,0-3.9,1.1C55.7,165.1,56.3,166.3,57.6,167.6z M58.9,178.9c0.7-1.2,0-2.4-1.1-3.7l-2.6,4.7
										C57,180.5,58.3,180,58.9,178.9z"/>
								</g>
							</g>
						</g>
					</g>
				</g>
			</g>
		</g>
		<g>
			<g>
				<g>
					<g>
						<g>
							<g>
								<path class="st2" d="M77.4,383.5c-6.4,11.1-20.6,15-31.8,8.6c-11.2-6.4-15-20.6-8.7-31.8c6.4-11.1,20.6-15,31.8-8.6
									C79.9,358.2,83.8,372.4,77.4,383.5z"/>
							</g>
						</g>
					</g>
				</g>
				<g>
					<g>
						<g>
							<g>
								<path class="st3" d="M72.6,380.8c-4.9,8.5-15.7,11.4-24.2,6.5c-8.5-4.9-11.5-15.7-6.6-24.2c4.9-8.5,15.7-11.4,24.2-6.5
									C74.5,361.4,77.5,372.3,72.6,380.8z"/>
							</g>
						</g>
					</g>
				</g>
				<g>
					<g>
						<g>
							<g>
								<g>
									<path class="st7" d="M72.9,380.3c-0.1-0.1,0.2-0.8,0.7-2.1c0.4-1.3,0.9-3.3,0.9-5.7c0-1.2-0.1-2.6-0.4-4
										c-0.3-1.4-0.8-2.9-1.6-4.3c-0.4-0.7-0.8-1.4-1.3-2.1c-0.5-0.7-1-1.4-1.6-2c-0.6-0.6-1.3-1.2-2-1.8c-0.7-0.5-1.5-1-2.3-1.5
										c-0.8-0.4-1.7-0.8-2.5-1.1c-0.9-0.3-1.7-0.5-2.6-0.7c-0.9-0.2-1.7-0.2-2.6-0.3c-0.8,0-1.7,0-2.5,0.1
										c-1.6,0.2-3.1,0.6-4.4,1.1c-1.3,0.5-2.5,1.2-3.5,1.9c-2,1.4-3.4,2.9-4.2,4c-0.9,1.1-1.3,1.8-1.4,1.7c-0.1,0,0.2-0.8,0.9-2
										c0.8-1.2,2-2.9,4.1-4.5c1-0.8,2.3-1.5,3.7-2.1c1.4-0.6,3-1.1,4.7-1.3c0.9-0.1,1.7-0.2,2.6-0.2c0.9,0,1.8,0.1,2.8,0.3
										c0.9,0.2,1.9,0.4,2.8,0.7c0.9,0.3,1.8,0.7,2.7,1.2c0.9,0.5,1.7,1,2.5,1.6c0.8,0.6,1.5,1.2,2.1,1.9c0.7,0.7,1.2,1.4,1.8,2.1
										c0.5,0.7,1,1.5,1.4,2.3c0.8,1.5,1.3,3.1,1.6,4.6c0.3,1.5,0.4,2.9,0.3,4.2c-0.1,2.6-0.8,4.6-1.4,5.9
										C73.4,379.7,72.9,380.3,72.9,380.3z"/>
								</g>
							</g>
						</g>
					</g>
				</g>
			</g>
			<g>
				<g>
					<g>
						<g>
							<g>
								<g>
									<path class="st7" d="M53.7,382.1l-1.5,2.7l-2.4-1.3l1.5-2.6c-2.3-1.5-4.2-3.5-4.9-5.3l3-2.2c0.7,1.6,2.1,3.2,3.7,4.3l2.2-4
										c-2.3-2.1-4.8-4.7-2.9-8.1c1.4-2.6,4.5-3.7,8.6-2l1.5-2.7l2.4,1.3l-1.5,2.6c1.7,1.1,3.2,2.6,4.1,4.2l-2.9,2.3
										c-0.8-1.4-1.9-2.5-3-3.3l-2.3,4.1c2.3,2.1,4.8,4.6,2.9,8C60.8,382.6,57.7,383.8,53.7,382.1z M57.2,370.1l1.9-3.4
										c-1.4-0.4-2.3,0-2.8,0.8C55.8,368.3,56.3,369.2,57.2,370.1z M58.1,378.2c0.5-0.8,0-1.7-0.8-2.6l-1.8,3.3
										C56.8,379.3,57.7,379,58.1,378.2z"/>
								</g>
							</g>
						</g>
					</g>
				</g>
			</g>
		</g>
		<g>
			<g>
				<path class="st8" d="M23.9,469c0-0.1,100.8-0.3,225.1-0.3c124.3,0,225.1,0.1,225.1,0.3s-100.8,0.3-225.1,0.3
					C124.7,469.2,23.9,469.1,23.9,469z"/>
			</g>
		</g>
		<g>
			<g>
				<g>
					
						<ellipse transform="matrix(0.3169 -0.9485 0.9485 0.3169 -178.0954 275.509)" class="st9" cx="102.2" cy="261.4" rx="38.5" ry="38.5"/>
				</g>
			</g>
			<g class="st10">
				<g>
					<g>
						<path class="st4" d="M81.6,228.8c-18,11.4-23.3,35.2-11.9,53.2c0,0,0,0,0,0c0,0,23.5-13.5,23.2-26.2
							C92.5,243.1,81.6,228.8,81.6,228.8z"/>
					</g>
				</g>
			</g>
			<g>
				<g>
					
						<ellipse transform="matrix(0.9995 -3.160625e-02 3.160625e-02 0.9995 -8.1108 3.2949)" class="st9" cx="100.2" cy="258.2" rx="29.2" ry="29.2"/>
				</g>
			</g>
			<g class="st11">
				<g>
					<g>
						
							<ellipse transform="matrix(0.9995 -3.160625e-02 3.160625e-02 0.9995 -8.1108 3.2949)" cx="100.2" cy="258.2" rx="29.2" ry="29.2"/>
					</g>
				</g>
			</g>
			<g>
				<g>
					<path class="st9" d="M127.5,246.1c8.6,13.5,4.6,31.3-8.9,39.9c-13.5,8.6-31.3,4.6-39.9-8.9s-4.6-31.3,8.9-39.9c0,0,0,0,0,0
						C101.1,228.6,118.9,232.6,127.5,246.1z"/>
				</g>
			</g>
			<g class="st11">
				<g>
					<g>
						<path class="st4" d="M127.5,246.1c8.6,13.5,4.6,31.3-8.9,39.9c-13.5,8.6-31.3,4.6-39.9-8.9s-4.6-31.3,8.9-39.9c0,0,0,0,0,0
							C101.1,228.6,118.9,232.6,127.5,246.1z"/>
					</g>
				</g>
			</g>
			<g>
				<g>
					<path class="st9" d="M102.7,258.8l-4-6.2l0,0c1.2-0.6,2.5-1,3.9-1.2c0.7-0.1,1.5-0.1,2.2,0l-0.1-0.2l-0.5-2.9l-0.1-0.7
						l-1.9-0.5l-0.4,0.6c-1.9,0.2-3.7,0.7-5.3,1.6l-2.2-3.4l-1.6-0.2l0.5,0.9l-1.5,0.9l2.2,3.5c-4.5,3.5-5.1,7.8-3.1,10.9
						c2.7,4.3,7.1,3.1,11.1,1.7l3.9,6.2c-2.4,1.2-5,1.8-7.7,1.5l0.6,4c2.5,0.4,6.1-0.5,9.2-2.2l1.6,2.6l-1.2,0.8l1.7,0l2.5-1.6
						l-2.2-3.5c4.5-3.6,5.1-7.8,3.1-10.9C111.1,256.2,106.6,257.5,102.7,258.8z M99.7,259.8c-2.1,0.6-3.9,0.8-4.8-0.7
						c-1-1.5-0.6-3.1,1.4-4.8L99.7,259.8z M108.5,268.1l-3.5-5.5c2.2-0.7,4-0.8,5,0.7C110.9,264.6,110.6,266.3,108.5,268.1
						L108.5,268.1z"/>
				</g>
			</g>
			<g class="st12">
				<g>
					<g>
						<path d="M102.7,258.8l-4-6.2l0,0c1.2-0.6,2.5-1,3.9-1.2c0.7-0.1,1.5-0.1,2.2,0l-0.1-0.2l-0.5-2.9l-0.1-0.7l-1.9-0.5l-0.4,0.6
							c-1.9,0.2-3.7,0.7-5.3,1.6l-2.2-3.4l-1.6-0.2l0.5,0.9l-1.5,0.9l2.2,3.5c-4.5,3.5-5.1,7.8-3.1,10.9c2.7,4.3,7.1,3.1,11.1,1.7
							l3.9,6.2c-2.4,1.2-5,1.8-7.7,1.5l0.6,4c2.5,0.4,6.1-0.5,9.2-2.2l1.6,2.6l-1.2,0.8l1.7,0l2.5-1.6l-2.2-3.5
							c4.5-3.6,5.1-7.8,3.1-10.9C111.1,256.2,106.6,257.5,102.7,258.8z M99.7,259.8c-2.1,0.6-3.9,0.8-4.8-0.7
							c-1-1.5-0.6-3.1,1.4-4.8L99.7,259.8z M108.5,268.1l-3.5-5.5c2.2-0.7,4-0.8,5,0.7C110.9,264.6,110.6,266.3,108.5,268.1
							L108.5,268.1z"/>
					</g>
				</g>
			</g>
			<g>
				<g>
					<path class="st9" d="M109.1,271.2l2.2,3.5l-2.5,1.6l-2.2-3.4c-3.2,1.8-6.7,2.6-9.2,2.2l-0.6-4c2.7,0.2,5.3-0.3,7.7-1.5
						l-3.9-6.2c-4,1.3-8.4,2.6-11.1-1.7c-2-3.2-1.5-7.4,3.1-10.9l-2.2-3.5l2.5-1.6l2.2,3.4c2.3-1.3,4.8-2,7.5-2.1l0.7,3.9
						c-2.1,0.1-4.2,0.6-6.1,1.5l4,6.3c4-1.3,8.4-2.6,11.1,1.7C114.2,263.5,113.6,267.7,109.1,271.2z M98.1,259.6l-3.5-5.5
						c-2,1.7-2.2,3.4-1.3,4.8C94.3,260.2,96,260.2,98.1,259.6L98.1,259.6z M108.4,263.1c-1-1.5-2.8-1.4-5-0.7l3.5,5.5
						C109,266.1,109.3,264.4,108.4,263.1L108.4,263.1z"/>
				</g>
			</g>
			<g>
				<g>
					<path class="st4" d="M93.2,262.9c-0.4,0-0.8-0.1-1.2-0.3c-0.9-0.4-1.7-1-2.2-1.9c-0.5-0.9-0.7-1.9-0.6-2.8
						c0-0.4,0.1-0.8,0.3-1.2c0,0-0.1,0.4-0.1,1.2c-0.1,0.9,0.2,1.9,0.6,2.7c0.5,0.8,1.2,1.4,2,1.8C92.8,262.7,93.2,262.8,93.2,262.9
						z"/>
				</g>
			</g>
			<g>
				<g>
					<path class="st4" d="M92.7,249.9c-0.1,0-0.4-0.4-0.8-1c-0.4-0.6-0.6-1-0.5-1.1c0.1-0.1,0.4,0.4,0.8,1
						C92.6,249.4,92.8,249.8,92.7,249.9z"/>
				</g>
			</g>
		</g>
		<g>
			<g>
				<g>
					
						<ellipse transform="matrix(0.833 -0.5533 0.5533 0.833 -16.7314 236.7227)" class="st9" cx="383.7" cy="146.1" rx="32.3" ry="32.3"/>
				</g>
			</g>
			<g class="st10">
				<g>
					<g>
						<path class="st4" d="M388.1,114.1c-17.7-2.4-33.9,9.9-36.3,27.6c0,0,0,0,0,0c0,0,22.3,4.1,29-4.2
							C387.4,129.2,388.1,114.1,388.1,114.1z"/>
					</g>
				</g>
			</g>
			<g>
				<g>
					
						<ellipse transform="matrix(0.1241 -0.9923 0.9923 0.1241 194.6671 506.3859)" class="st9" cx="384.2" cy="142.9" rx="24.5" ry="24.5"/>
				</g>
			</g>
			<g class="st11">
				<g>
					<g>
						<ellipse transform="matrix(0.1241 -0.9923 0.9923 0.1241 194.6671 506.3859)" cx="384.2" cy="142.9" rx="24.5" ry="24.5"/>
					</g>
				</g>
			</g>
			<g>
				<g>
					<path class="st9" d="M408.2,149.9c-1.8,13.2-14,22.5-27.3,20.7c-13.2-1.8-22.5-14-20.7-27.3c1.8-13.2,14-22.5,27.3-20.7
						c0,0,0,0,0,0C400.7,124.5,410,136.7,408.2,149.9z"/>
				</g>
			</g>
			<g class="st11">
				<g>
					<g>
						<path class="st4" d="M408.2,149.9c-1.8,13.2-14,22.5-27.3,20.7c-13.2-1.8-22.5-14-20.7-27.3c1.8-13.2,14-22.5,27.3-20.7
							c0,0,0,0,0,0C400.7,124.5,410,136.7,408.2,149.9z"/>
					</g>
				</g>
			</g>
			<g>
				<g>
					<path class="st9" d="M385.4,144.7l0.8-6.1l0,0c1.1,0.3,2.2,0.7,3.1,1.3c0.5,0.4,1,0.7,1.4,1.2l0.1-0.2l1.3-2.1l0.3-0.5
						l-0.9-1.3l-0.6,0.2c-1.3-0.9-2.7-1.5-4.2-1.9l0.5-3.4l-0.9-1l-0.1,0.8l-1.4-0.2l-0.5,3.4c-4.8-0.2-7.4,2.2-7.9,5.3
						c-0.6,4.2,2.9,5.8,6.2,7.1l-0.8,6.1c-2.2-0.5-4.2-1.6-5.8-3.2l-1.8,2.9c1.4,1.6,4.1,3,7.1,3.6l-0.3,2.5l-1.2-0.1l1.1,1l2.5,0.3
						l0.5-3.4c4.8,0.2,7.5-2.2,7.9-5.3C392.2,147.5,388.7,146,385.4,144.7z M383,143.7c-1.7-0.8-2.9-1.6-2.7-3.1
						c0.2-1.5,1.3-2.3,3.4-2.3L383,143.7z M384.2,153.8l0.7-5.4c1.8,0.8,3,1.7,2.8,3.1C387.5,152.8,386.4,153.7,384.2,153.8
						L384.2,153.8z"/>
				</g>
			</g>
			<g class="st12">
				<g>
					<g>
						<path d="M385.4,144.7l0.8-6.1l0,0c1.1,0.3,2.2,0.7,3.1,1.3c0.5,0.4,1,0.7,1.4,1.2l0.1-0.2l1.3-2.1l0.3-0.5l-0.9-1.3l-0.6,0.2
							c-1.3-0.9-2.7-1.5-4.2-1.9l0.5-3.4l-0.9-1l-0.1,0.8l-1.4-0.2l-0.5,3.4c-4.8-0.2-7.4,2.2-7.9,5.3c-0.6,4.2,2.9,5.8,6.2,7.1
							l-0.8,6.1c-2.2-0.5-4.2-1.6-5.8-3.2l-1.8,2.9c1.4,1.6,4.1,3,7.1,3.6l-0.3,2.5l-1.2-0.1l1.1,1l2.5,0.3l0.5-3.4
							c4.8,0.2,7.5-2.2,7.9-5.3C392.2,147.5,388.7,146,385.4,144.7z M383,143.7c-1.7-0.8-2.9-1.6-2.7-3.1c0.2-1.5,1.3-2.3,3.4-2.3
							L383,143.7z M384.2,153.8l0.7-5.4c1.8,0.8,3,1.7,2.8,3.1C387.5,152.8,386.4,153.7,384.2,153.8L384.2,153.8z"/>
					</g>
				</g>
			</g>
			<g>
				<g>
					<path class="st9" d="M382.8,156.1l-0.5,3.4l-2.5-0.3l0.5-3.4c-3-0.6-5.7-2-7.1-3.5l1.8-2.9c1.6,1.6,3.6,2.7,5.8,3.2l0.8-6.1
						c-3.3-1.3-6.7-2.9-6.1-7.1c0.4-3.1,3-5.5,7.8-5.3l0.5-3.4l2.5,0.3l-0.5,3.4c2.2,0.4,4.2,1.3,5.9,2.7l-1.7,2.9
						c-1.4-1.1-3-1.9-4.7-2.3l-0.8,6.2c3.3,1.3,6.8,2.8,6.2,7.1C390.3,153.9,387.7,156.3,382.8,156.1z M382.1,142.7l0.7-5.4
						c-2.2,0-3.3,1-3.4,2.3C379.3,141,380.4,142,382.1,142.7L382.1,142.7z M386.8,150.5c0.2-1.5-1-2.4-2.8-3.1l-0.7,5.4
						C385.5,152.7,386.6,151.8,386.8,150.5L386.8,150.5z"/>
				</g>
			</g>
			<g>
				<g>
					<path class="st4" d="M377.2,142.1c-0.3-0.2-0.5-0.5-0.6-0.8c-0.4-0.7-0.5-1.6-0.4-2.4c0.1-0.8,0.6-1.6,1.2-2.1
						c0.2-0.3,0.5-0.5,0.9-0.6c0,0-0.3,0.2-0.7,0.7c-0.5,0.6-0.9,1.3-1,2c-0.1,0.8,0,1.6,0.3,2.3C377,141.8,377.2,142.1,377.2,142.1
						z"/>
				</g>
			</g>
			<g>
				<g>
					<path class="st4" d="M383.9,133.6c-0.1,0-0.1-0.5,0-1c0.1-0.6,0.2-1,0.3-1c0.1,0,0.1,0.5,0,1
						C384.1,133.2,384,133.6,383.9,133.6z"/>
				</g>
			</g>
		</g>
		<g>
			<g>
				<g>
					<g>
						
							<rect x="427" y="434.3" transform="matrix(-1 -1.224647e-16 1.224647e-16 -1 891.2021 882.6139)" class="st3" width="37.2" height="14"/>
					</g>
				</g>
			</g>
			<g>
				<g>
					<g>
						
							<rect x="349" y="431.9" transform="matrix(-1 -1.224647e-16 1.224647e-16 -1 814.7109 866.7359)" class="st13" width="116.8" height="2.9"/>
					</g>
				</g>
			</g>
			<g>
				<g>
					<g>
						
							<rect x="349" y="447.7" transform="matrix(-1 -1.224647e-16 1.224647e-16 -1 814.1695 898.2996)" class="st13" width="116.2" height="2.9"/>
					</g>
				</g>
			</g>
			<g>
				<g>
					<g>
						<polygon class="st13" points="427,432.6 426.8,450.1 349,450.1 349,432.6 						"/>
					</g>
				</g>
			</g>
			<g>
				<g>
					<g>
						<path class="st8" d="M408.1,441.3c0,2.4,1.9,4.3,4.2,4.3c2.3,0,4.2-1.9,4.2-4.3c0-2.4-1.9-4.3-4.2-4.3
							C410,437,408.1,438.9,408.1,441.3z"/>
					</g>
				</g>
				<g>
					<g>
						<path class="st7" d="M407.4,441.3c0-2.7,2.2-5,4.9-5c2.7,0,4.9,2.2,4.9,5c0,2.7-2.2,5-4.9,5
							C409.6,446.3,407.4,444.1,407.4,441.3z M408.7,441.3c0,2.1,1.6,3.7,3.6,3.7c2,0,3.6-1.7,3.6-3.7c0-2.1-1.6-3.7-3.6-3.7
							C410.3,437.6,408.7,439.3,408.7,441.3z"/>
					</g>
				</g>
			</g>
			<g>
				<g>
					<g>
						<g>
							<path class="st8" d="M429.8,444.9c0,0.2,7.6,0.3,17.1,0.3c9.4,0,17.1-0.1,17.1-0.3c0-0.2-7.6-0.3-17.1-0.3
								C437.4,444.6,429.8,444.7,429.8,444.9z"/>
						</g>
					</g>
				</g>
			</g>
			<g>
				<g>
					<g>
						<g>
							<path class="st8" d="M429.8,442.4c0,0.2,7.6,0.3,17.1,0.3c9.4,0,17.1-0.1,17.1-0.3c0-0.2-7.6-0.3-17.1-0.3
								C437.4,442.1,429.8,442.3,429.8,442.4z"/>
						</g>
					</g>
				</g>
			</g>
			<g>
				<g>
					<g>
						<g>
							<path class="st8" d="M429.8,440c0,0.2,7.6,0.3,17.1,0.3c9.4,0,17.1-0.1,17.1-0.3c0-0.2-7.6-0.3-17.1-0.3
								C437.4,439.7,429.8,439.8,429.8,440z"/>
						</g>
					</g>
				</g>
			</g>
			<g>
				<g>
					<g>
						<g>
							<path class="st8" d="M429.8,437.6c0,0.2,7.6,0.3,17.1,0.3c9.4,0,17.1-0.1,17.1-0.3c0-0.2-7.6-0.3-17.1-0.3
								C437.4,437.2,429.8,437.4,429.8,437.6z"/>
						</g>
					</g>
				</g>
			</g>
			<g>
				<g>
					<g>
						<g>
							
								<rect x="357.6" y="436.3" transform="matrix(-1 -1.224647e-16 1.224647e-16 -1 750.2987 881.9678)" class="st4" width="35.1" height="9.3"/>
						</g>
					</g>
				</g>
				<g>
					<g>
						<g>
							<g>
								<path class="st7" d="M387.2,444.7c0.2,0,0.3-1.7,0.3-3.7c0-2.1-0.2-3.7-0.3-3.7c-0.2,0-0.3,1.7-0.3,3.7
									C386.9,443,387,444.7,387.2,444.7z"/>
							</g>
						</g>
					</g>
				</g>
				<g>
					<g>
						<g>
							<g>
								<path class="st7" d="M382.6,444.7c0.2,0,0.3-1.7,0.3-3.7c0-2.1-0.2-3.7-0.3-3.7c-0.2,0-0.3,1.7-0.3,3.7
									C382.2,443,382.4,444.7,382.6,444.7z"/>
							</g>
						</g>
					</g>
				</g>
				<g>
					<g>
						<g>
							<g>
								<path class="st7" d="M377.9,444.7c0.2,0,0.3-1.7,0.3-3.7c0-2.1-0.2-3.7-0.3-3.7c-0.2,0-0.3,1.7-0.3,3.7
									C377.6,443,377.8,444.7,377.9,444.7z"/>
							</g>
						</g>
					</g>
				</g>
				<g>
					<g>
						<g>
							<g>
								<path class="st7" d="M373.3,444.7c0.2,0,0.3-1.7,0.3-3.7c0-2.1-0.2-3.7-0.3-3.7c-0.2,0-0.3,1.7-0.3,3.7
									C373,443,373.1,444.7,373.3,444.7z"/>
							</g>
						</g>
					</g>
				</g>
				<g>
					<g>
						<g>
							<g>
								<path class="st7" d="M368.7,444.7c0.2,0,0.3-1.7,0.3-3.7c0-2.1-0.2-3.7-0.3-3.7c-0.2,0-0.3,1.7-0.3,3.7
									C368.3,443,368.5,444.7,368.7,444.7z"/>
							</g>
						</g>
					</g>
				</g>
				<g>
					<g>
						<g>
							<g>
								<path class="st7" d="M364,444.7c0.2,0,0.3-1.7,0.3-3.7c0-2.1-0.2-3.7-0.3-3.7c-0.2,0-0.3,1.7-0.3,3.7
									C363.7,443,363.8,444.7,364,444.7z"/>
							</g>
						</g>
					</g>
				</g>
			</g>
			<g>
				<g>
					<g>
						<g>
							<path class="st8" d="M426.5,450.6c0.2,0,0.3-4.2,0.3-9.3c0-5.1-0.2-9.3-0.3-9.3c-0.2,0-0.3,4.2-0.3,9.3
								C426.1,446.4,426.3,450.6,426.5,450.6z"/>
						</g>
					</g>
				</g>
			</g>
		</g>
		<g>
			<g>
				<g>
					<g>
						
							<rect x="422.1" y="452.5" transform="matrix(-1 -1.224647e-16 1.224647e-16 -1 881.3226 919.0129)" class="st3" width="37.2" height="14"/>
					</g>
				</g>
			</g>
			<g>
				<g>
					<g>
						
							<rect x="344" y="450.1" transform="matrix(-1 -1.224647e-16 1.224647e-16 -1 804.8307 903.1346)" class="st9" width="116.8" height="2.9"/>
					</g>
				</g>
			</g>
			<g>
				<g>
					<g>
						
							<rect x="344" y="465.9" transform="matrix(-1 -1.224647e-16 1.224647e-16 -1 804.2896 934.6987)" class="st9" width="116.2" height="2.9"/>
					</g>
				</g>
			</g>
			<g>
				<g>
					<g>
						<polygon class="st9" points="422.1,450.8 421.9,468.3 344,468.3 344,450.8 						"/>
					</g>
				</g>
			</g>
			<g>
				<g>
					<g>
						<path class="st8" d="M403.1,459.5c0,2.4,1.9,4.3,4.2,4.3c2.3,0,4.2-1.9,4.2-4.3c0-2.4-1.9-4.3-4.2-4.3
							C405,455.2,403.1,457.1,403.1,459.5z"/>
					</g>
				</g>
				<g>
					<g>
						<path class="st7" d="M402.5,459.5c0-2.7,2.2-5,4.9-5c2.7,0,4.9,2.2,4.9,5c0,2.7-2.2,5-4.9,5
							C404.7,464.5,402.5,462.2,402.5,459.5z M403.8,459.5c0,2.1,1.6,3.7,3.6,3.7c2,0,3.6-1.7,3.6-3.7c0-2.1-1.6-3.7-3.6-3.7
							C405.4,455.8,403.8,457.5,403.8,459.5z"/>
					</g>
				</g>
			</g>
			<g>
				<g>
					<g>
						<g>
							<path class="st8" d="M424.9,463.1c0,0.2,7.6,0.3,17.1,0.3c9.4,0,17.1-0.1,17.1-0.3c0-0.2-7.6-0.3-17.1-0.3
								C432.5,462.8,424.9,462.9,424.9,463.1z"/>
						</g>
					</g>
				</g>
			</g>
			<g>
				<g>
					<g>
						<g>
							<path class="st8" d="M424.9,460.6c0,0.2,7.6,0.3,17.1,0.3c9.4,0,17.1-0.1,17.1-0.3c0-0.2-7.6-0.3-17.1-0.3
								C432.5,460.3,424.9,460.5,424.9,460.6z"/>
						</g>
					</g>
				</g>
			</g>
			<g>
				<g>
					<g>
						<g>
							<path class="st8" d="M424.9,458.2c0,0.2,7.6,0.3,17.1,0.3c9.4,0,17.1-0.1,17.1-0.3c0-0.2-7.6-0.3-17.1-0.3
								C432.5,457.9,424.9,458,424.9,458.2z"/>
						</g>
					</g>
				</g>
			</g>
			<g>
				<g>
					<g>
						<g>
							<path class="st8" d="M424.9,455.8c0,0.2,7.6,0.3,17.1,0.3c9.4,0,17.1-0.1,17.1-0.3c0-0.2-7.6-0.3-17.1-0.3
								C432.5,455.4,424.9,455.6,424.9,455.8z"/>
						</g>
					</g>
				</g>
			</g>
			<g>
				<g>
					<g>
						<g>
							
								<rect x="352.7" y="454.5" transform="matrix(-1 -1.224647e-16 1.224647e-16 -1 740.4189 918.3668)" class="st4" width="35.1" height="9.3"/>
						</g>
					</g>
				</g>
				<g>
					<g>
						<g>
							<g>
								<path class="st7" d="M382.3,462.9c0.2,0,0.3-1.7,0.3-3.7c0-2.1-0.2-3.7-0.3-3.7c-0.2,0-0.3,1.7-0.3,3.7
									C381.9,461.2,382.1,462.9,382.3,462.9z"/>
							</g>
						</g>
					</g>
				</g>
				<g>
					<g>
						<g>
							<g>
								<path class="st7" d="M377.6,462.9c0.2,0,0.3-1.7,0.3-3.7c0-2.1-0.2-3.7-0.3-3.7c-0.2,0-0.3,1.7-0.3,3.7
									C377.3,461.2,377.5,462.9,377.6,462.9z"/>
							</g>
						</g>
					</g>
				</g>
				<g>
					<g>
						<g>
							<g>
								<path class="st7" d="M373,462.9c0.2,0,0.3-1.7,0.3-3.7c0-2.1-0.2-3.7-0.3-3.7c-0.2,0-0.3,1.7-0.3,3.7
									C372.7,461.2,372.8,462.9,373,462.9z"/>
							</g>
						</g>
					</g>
				</g>
				<g>
					<g>
						<g>
							<g>
								<path class="st7" d="M368.4,462.9c0.2,0,0.3-1.7,0.3-3.7c0-2.1-0.2-3.7-0.3-3.7c-0.2,0-0.3,1.7-0.3,3.7
									C368,461.2,368.2,462.9,368.4,462.9z"/>
							</g>
						</g>
					</g>
				</g>
				<g>
					<g>
						<g>
							<g>
								<path class="st7" d="M363.7,462.9c0.2,0,0.3-1.7,0.3-3.7c0-2.1-0.2-3.7-0.3-3.7c-0.2,0-0.3,1.7-0.3,3.7
									C363.4,461.2,363.5,462.9,363.7,462.9z"/>
							</g>
						</g>
					</g>
				</g>
				<g>
					<g>
						<g>
							<g>
								<path class="st7" d="M359.1,462.9c0.2,0,0.3-1.7,0.3-3.7c0-2.1-0.2-3.7-0.3-3.7c-0.2,0-0.3,1.7-0.3,3.7
									C358.8,461.2,358.9,462.9,359.1,462.9z"/>
							</g>
						</g>
					</g>
				</g>
			</g>
			<g>
				<g>
					<g>
						<g>
							<path class="st8" d="M421.5,468.8c0.2,0,0.3-4.2,0.3-9.3c0-5.1-0.2-9.3-0.3-9.3c-0.2,0-0.3,4.1-0.3,9.3
								C421.2,464.6,421.4,468.8,421.5,468.8z"/>
						</g>
					</g>
				</g>
			</g>
		</g>
		<g>
			<g>
				<g>
					<g>
						<g>
							<g>
								<polygon class="st3" points="352.9,404.7 352.9,400.1 452.7,400.3 458.5,400.3 458.5,404.7 452.7,404.7 452.7,432 
									344.9,432 344.9,404.7 								"/>
							</g>
						</g>
					</g>
				</g>
			</g>
			<g>
				<g>
					<path class="st8" d="M458.5,404.7c0,0.1-23.6,0.2-52.7,0.2c-29.1,0-52.7-0.2-52.7-0.3c0-0.1,23.6-0.2,52.7-0.2
						C434.9,404.4,458.5,404.6,458.5,404.7z"/>
				</g>
			</g>
			<g>
				<g>
					<path class="st8" d="M452.7,410.8c0,0.1-24.1,0.2-53.9,0.2c-29.8,0-53.9-0.2-53.9-0.3c0-0.1,24.1-0.2,53.9-0.2
						C428.6,410.6,452.7,410.7,452.7,410.8z"/>
				</g>
			</g>
			<g>
				<g>
					<path class="st8" d="M452.7,417.1c0,0.1-24.1,0.2-53.9,0.2c-29.8,0-53.9-0.2-53.9-0.3c0-0.1,24.1-0.2,53.9-0.2
						C428.6,416.8,452.7,416.9,452.7,417.1z"/>
				</g>
			</g>
			<g>
				<g>
					<path class="st8" d="M452.7,423.3c0,0.1-24.1,0.2-53.9,0.2c-29.8,0-53.9-0.2-53.9-0.3c0-0.1,24.1-0.2,53.9-0.2
						C428.6,423,452.7,423.1,452.7,423.3z"/>
				</g>
			</g>
			<g>
				<g>
					<path class="st8" d="M452.7,429.5c0,0.1-24.1,0.2-53.9,0.2c-29.8,0-53.9-0.2-53.9-0.3c0-0.1,24.1-0.2,53.9-0.2
						C428.6,429.2,452.7,429.4,452.7,429.5z"/>
				</g>
			</g>
			<g class="st12">
				<g>
					<g>
						<polygon points="377.4,432 377.4,400.1 352.9,400.1 352.9,404.7 344.9,404.7 344.9,432 						"/>
					</g>
				</g>
			</g>
		</g>
		<g>
			<g>
				<g>
					<g>
						<g>
							<path class="st4" d="M451.3,287.4l-67.7-10.9c-3.4-0.5-6.6,1.8-7.2,5.2l-10.9,67.7c-0.5,3.4,1.8,6.6,5.2,7.2l2,0.3l18.8,3
								l46.9,7.5c3.4,0.5,6.6-1.8,7.2-5.2l10.9-67.7C457,291.2,454.7,288,451.3,287.4z"/>
						</g>
					</g>
				</g>
				<g>
					<g>
						<g>
							<g>
								<g>
									<g>
										<path class="st9" d="M373.3,300.9l80.1,12.9l3.1-19.6c0.5-3.2-1.6-6.2-4.8-6.7l-68.9-11.1c-3-0.5-5.9,1.6-6.4,4.6
											L373.3,300.9z"/>
									</g>
								</g>
							</g>
						</g>
					</g>
					<g>
						<g>
							<g>
								<g>
									<g>
										<path class="st8" d="M406.4,316.7L402,344l-6.3-1l3.6-22.2l-5.4-0.9l0.8-5.1L406.4,316.7z"/>
									</g>
								</g>
							</g>
						</g>
						<g>
							<g>
								<g>
									<g>
										<path class="st8" d="M432.5,320.9l-0.7,4.1L418,346.5l-6.8-1.1l13.3-20.5l-9-1.4l-0.7,4.4l-5.6-0.9l1.5-9.6L432.5,320.9z"
											/>
									</g>
								</g>
							</g>
						</g>
					</g>
					<g>
						<g>
							<g>
								<g>
									<g>
										<g>
											<path class="st8" d="M403.9,294.6c0,0.1,5.5,1.1,12.3,2.2c6.8,1.1,12.3,1.9,12.3,1.7c0-0.1-5.5-1.1-12.3-2.2
												C409.5,295.2,403.9,294.4,403.9,294.6z"/>
										</g>
									</g>
								</g>
							</g>
						</g>
					</g>
				</g>
			</g>
			<g>
				<g>
					<g>
						<g>
							<path class="st8" d="M451.3,287.4c0,0,0.3,0,0.8,0.2c0.5,0.1,1.3,0.4,2.1,1.1c0.8,0.6,1.7,1.7,2.2,3.2
								c0.2,0.7,0.3,1.6,0.2,2.5c-0.1,0.9-0.3,1.8-0.4,2.8c-1.2,7.9-3,19.2-5.3,33.2c-1.1,7-2.3,14.7-3.7,22.9
								c-0.3,2.1-0.7,4.2-1,6.3c-0.2,1.1-0.3,2.1-0.5,3.2c-0.2,1.1-0.8,2.1-1.5,3c-0.8,0.8-1.8,1.5-2.9,1.8
								c-1.1,0.4-2.3,0.3-3.5,0.1c-2.3-0.4-4.5-0.7-6.9-1.1c-18.5-3-38.9-6.2-60.3-9.7c-2.8-0.4-5.1-2.8-5.4-5.6
								c-0.1-0.7,0-1.4,0.1-2.1l0.3-2c0.2-1.3,0.4-2.6,0.6-3.9c0.8-5.2,1.7-10.3,2.5-15.4c1.6-10.1,3.2-19.8,4.7-29.1
								c0.7-4.6,1.5-9.2,2.2-13.5c0.2-1.1,0.4-2.2,0.5-3.3c0.1-0.5,0.2-1.1,0.4-1.6c0.2-0.5,0.5-1,0.8-1.5c0.6-0.9,1.5-1.6,2.5-2.1
								c1-0.5,2.1-0.7,3.2-0.6c8.3,1.3,15.9,2.6,22.9,3.7c14,2.3,25.3,4.1,33.2,5.4c3.9,0.6,6.9,1.1,9,1.5c1,0.2,1.8,0.3,2.3,0.4
								C451,287.4,451.3,287.4,451.3,287.4s-0.3,0-0.8-0.1c-0.5-0.1-1.3-0.2-2.4-0.4c-2.1-0.3-5.1-0.8-9-1.4
								c-7.9-1.2-19.2-3-33.2-5.3c-7-1.1-14.7-2.4-22.9-3.6c-1-0.1-2,0.1-3,0.6c-0.9,0.5-1.8,1.1-2.4,2c-0.3,0.4-0.5,0.9-0.7,1.4
								c-0.2,0.5-0.3,1-0.4,1.5c-0.2,1.1-0.3,2.2-0.5,3.3c-0.7,4.4-1.4,8.9-2.2,13.5c-1.5,9.3-3,19-4.7,29.1
								c-0.8,5-1.6,10.2-2.5,15.4c-0.2,1.3-0.4,2.6-0.6,3.9c-0.2,1.3-0.6,2.6-0.4,3.9c0.3,2.6,2.4,4.8,5.1,5.2
								c21.4,3.4,41.8,6.7,60.3,9.7c2.3,0.4,4.6,0.7,6.9,1.1c1.1,0.2,2.2,0.2,3.3-0.1c1.1-0.3,2-0.9,2.7-1.7
								c0.7-0.8,1.2-1.8,1.5-2.8c0.2-1.1,0.4-2.1,0.5-3.2c0.3-2.1,0.7-4.2,1-6.3c1.3-8.2,2.6-15.9,3.7-22.9
								c2.3-14,4.1-25.3,5.4-33.2c0.2-1,0.3-1.9,0.4-2.8c0.1-0.9,0-1.7-0.2-2.4c-0.4-1.5-1.3-2.5-2.1-3.1c-0.8-0.6-1.6-0.9-2.1-1.1
								c-0.3-0.1-0.5-0.1-0.6-0.2C451.4,287.5,451.3,287.4,451.3,287.4z"/>
						</g>
					</g>
				</g>
			</g>
			<g>
				<g>
					<g>
						<g>
							<g>
								<g>
									<path class="st7" d="M403.8,290.3l0.2,0c1.4,0.2,2.7-0.7,2.9-2.1l2.1-13.1c0.2-1.4-0.7-2.7-2.1-2.9l-0.2,0
										c-1.4-0.2-2.7,0.7-2.9,2.1l-2.1,13.1C401.5,288.8,402.4,290.1,403.8,290.3z"/>
								</g>
							</g>
						</g>
					</g>
				</g>
				<g>
					<g>
						<g>
							<g>
								<g>
									<g>
										<path class="st8" d="M403.8,290.3c0-0.1-0.7-0.1-1.4-0.8c-0.3-0.4-0.6-1-0.6-1.7c0.1-0.7,0.3-1.6,0.4-2.6
											c0.3-1.9,0.7-4.2,1.1-6.7c0.2-1.3,0.4-2.6,0.7-4c0.1-0.6,0.4-1.2,0.9-1.6c0.5-0.4,1.2-0.5,1.9-0.4
											c0.7,0.1,1.2,0.5,1.6,1.1c0.4,0.6,0.4,1.2,0.3,1.9c-0.2,1.4-0.4,2.7-0.6,4c-0.4,2.5-0.7,4.8-1,6.7
											c-0.1,0.5-0.1,0.9-0.2,1.4c-0.1,0.4-0.1,0.8-0.2,1.2c-0.3,0.7-0.8,1.1-1.2,1.4C404.5,290.5,403.8,290.3,403.8,290.3
											c0,0,0.1,0.1,0.4,0.1c0.3,0,0.7,0,1.3-0.2c0.5-0.2,1.1-0.7,1.4-1.4c0.2-0.4,0.2-0.8,0.3-1.2c0.1-0.4,0.2-0.9,0.2-1.4
											c0.3-1.9,0.7-4.2,1.1-6.7c0.2-1.3,0.4-2.6,0.7-4c0.2-0.7,0.1-1.6-0.3-2.2c-0.4-0.7-1.1-1.2-1.9-1.3
											c-0.8-0.2-1.6,0-2.3,0.5c-0.6,0.5-1.1,1.2-1.1,2c-0.2,1.4-0.4,2.7-0.6,4c-0.4,2.5-0.7,4.8-1,6.7c-0.1,1-0.3,1.8-0.4,2.6
											c0,0.8,0.4,1.5,0.8,1.9c0.4,0.4,0.8,0.6,1.1,0.7C403.7,290.3,403.8,290.3,403.8,290.3z"/>
									</g>
								</g>
							</g>
						</g>
					</g>
				</g>
			</g>
			<g>
				<g>
					<g>
						<g>
							<g>
								<g>
									<path class="st7" d="M428.3,294.3l0.2,0c1.4,0.2,2.7-0.7,2.9-2.1l2.1-13.1c0.2-1.4-0.7-2.7-2.1-2.9l-0.2,0
										c-1.4-0.2-2.7,0.7-2.9,2.1l-2.1,13.1C425.9,292.7,426.9,294,428.3,294.3z"/>
								</g>
							</g>
						</g>
					</g>
				</g>
				<g>
					<g>
						<g>
							<g>
								<g>
									<g>
										<path class="st8" d="M428.3,294.3c0-0.1-0.7-0.1-1.4-0.8c-0.3-0.4-0.6-1-0.6-1.7c0.1-0.7,0.3-1.6,0.4-2.6
											c0.3-1.9,0.7-4.2,1.1-6.7c0.2-1.3,0.4-2.6,0.7-4c0.1-0.6,0.4-1.2,0.9-1.6c0.5-0.4,1.2-0.5,1.9-0.4
											c0.7,0.1,1.2,0.5,1.6,1.1c0.4,0.6,0.4,1.2,0.3,1.9c-0.2,1.4-0.4,2.7-0.6,4c-0.4,2.5-0.7,4.8-1,6.7
											c-0.1,0.5-0.1,0.9-0.2,1.4c-0.1,0.4-0.1,0.8-0.2,1.2c-0.3,0.7-0.8,1.1-1.2,1.4C428.9,294.4,428.3,294.2,428.3,294.3
											c0,0,0.1,0.1,0.4,0.1c0.3,0,0.7,0,1.3-0.2c0.5-0.2,1.1-0.7,1.4-1.4c0.2-0.4,0.2-0.8,0.3-1.2c0.1-0.4,0.2-0.9,0.2-1.4
											c0.3-1.9,0.7-4.2,1.1-6.7c0.2-1.3,0.4-2.6,0.7-4c0.2-0.7,0.1-1.6-0.3-2.2c-0.4-0.7-1.1-1.2-1.9-1.3
											c-0.8-0.2-1.6,0-2.3,0.5c-0.6,0.5-1.1,1.2-1.1,2c-0.2,1.4-0.4,2.7-0.6,4c-0.4,2.5-0.7,4.8-1,6.7c-0.1,1-0.3,1.8-0.4,2.6
											c0,0.8,0.4,1.5,0.8,1.9c0.4,0.4,0.8,0.6,1.1,0.7C428.1,294.3,428.3,294.3,428.3,294.3z"/>
									</g>
								</g>
							</g>
						</g>
					</g>
				</g>
			</g>
		</g>
		<g>
			<g>
				<path class="st4" d="M454.9,241v-91.9c0-3.1-2.5-5.6-5.6-5.6H307.4c-3.1,0-5.6,2.5-5.6,5.6V241c0,3.1,2.5,5.6,5.6,5.6h141.8
					C452.3,246.6,454.9,244.1,454.9,241z"/>
			</g>
			<g>
				<path class="st7" d="M448.6,246.9H307.3c-3.2,0-5.8-2.6-5.8-5.8v-60.9h153.5v60.3C455.1,244,452.2,246.9,448.6,246.9z"/>
			</g>
			<g>
				<path class="st9" d="M449.8,246.9h-20.4v-42.4h25.5v37.3C454.8,244.6,452.6,246.9,449.8,246.9z"/>
			</g>
			<g>
				<rect x="329.9" y="228.5" class="st2" width="76" height="18.4"/>
			</g>
			<g>
				<g>
					<g>
						<path class="st8" d="M372.5,213v0.8l-3.4,7.5h-1.3l3.3-7.3h-3.8v1.5h-1.1V213H372.5z"/>
					</g>
				</g>
			</g>
			<g>
				<g>
					<g>
						<path class="st8" d="M397.4,219c0,1.5-1.3,2.4-3.3,2.4c-2,0-3.3-0.9-3.3-2.4c0-1,0.5-1.7,1.5-2c-0.8-0.4-1.2-1-1.2-1.8
							c0-1.4,1.2-2.3,3-2.3c1.8,0,3,0.9,3,2.3c0,0.8-0.4,1.4-1.2,1.8C396.8,217.4,397.4,218.1,397.4,219z M396.2,219
							c0-0.9-0.8-1.5-2.1-1.5c-1.3,0-2.1,0.6-2.1,1.5c0,0.9,0.8,1.5,2.1,1.5C395.4,220.5,396.2,219.9,396.2,219z M392.2,215.3
							c0,0.8,0.7,1.3,1.8,1.3c1.2,0,1.9-0.5,1.9-1.3c0-0.8-0.7-1.3-1.9-1.3C392.9,213.9,392.2,214.4,392.2,215.3z"/>
					</g>
				</g>
			</g>
			<g>
				<g>
					<g>
						<path class="st8" d="M318.3,236.3c0,2.8-1.6,4.4-3.9,4.4c-0.8,0-1.5-0.2-2.1-0.5l0.5-0.9c0.4,0.3,1,0.4,1.6,0.4
							c1.7,0,2.8-1.1,2.8-3.1v-0.3c-0.5,0.7-1.4,1.1-2.4,1.1c-1.7,0-2.8-1-2.8-2.5c0-1.6,1.3-2.6,2.9-2.6
							C317.1,232.2,318.3,233.6,318.3,236.3z M316.9,234.7c0-0.9-0.7-1.6-2-1.6c-1.1,0-1.8,0.6-1.8,1.6c0,1,0.7,1.6,1.9,1.6
							C316.1,236.3,316.9,235.6,316.9,234.7z"/>
					</g>
				</g>
			</g>
			<g>
				<g>
					<g>
						<path class="st8" d="M397.4,196.8h-1.6v2h-1.2v-2h-4.6V196l4.3-5.4h1.3l-4.1,5.3h3.2V194h1.1v1.8h1.6V196.8z"/>
					</g>
				</g>
			</g>
			<g>
				<g>
					<g>
						<path class="st8" d="M318.2,217.2c0,1.4-1,2.6-3.1,2.6c-1.2,0-2.3-0.4-3.1-1l0.5-0.9c0.6,0.5,1.5,0.9,2.5,0.9
							c1.3,0,2-0.6,2-1.5c0-0.9-0.6-1.5-2.5-1.5h-1.9l0.4-4.4h4.7v1h-3.7l-0.2,2.3h0.9C317.3,214.7,318.2,215.8,318.2,217.2z"/>
					</g>
				</g>
			</g>
			<g>
				<g>
					<g>
						<path class="st8" d="M345.8,217.2c0,1.6-1.3,2.6-2.9,2.6c-2.2,0-3.5-1.5-3.5-4.1c0-2.8,1.6-4.4,3.9-4.4c0.8,0,1.5,0.2,2.1,0.5
							l-0.5,0.9c-0.4-0.3-1-0.4-1.6-0.4c-1.7,0-2.8,1.1-2.8,3.1c0,0.1,0,0.2,0,0.3c0.5-0.7,1.4-1.1,2.4-1.1
							C344.6,214.7,345.8,215.6,345.8,217.2z M344.7,217.2c0-1-0.7-1.6-1.9-1.6c-1.1,0-1.9,0.7-1.9,1.6c0,0.9,0.7,1.6,2,1.6
							C343.9,218.8,344.7,218.2,344.7,217.2z"/>
					</g>
				</g>
			</g>
			<g>
				<g>
					<g>
						<path class="st8" d="M316.5,190v8.3h-1.2v-7.3h-1.9v-1H316.5z"/>
					</g>
				</g>
			</g>
			<g>
				<g>
					<g>
						<path class="st8" d="M346.3,197.9v1h-6v-0.8l3.4-3.3c0.9-0.9,1-1.4,1-1.9c0-0.9-0.6-1.4-1.8-1.4c-0.9,0-1.6,0.3-2.1,0.9
							l-0.8-0.7c0.6-0.8,1.7-1.3,3-1.3c1.7,0,2.9,0.9,2.9,2.3c0,0.8-0.2,1.5-1.4,2.6l-2.5,2.4H346.3z"/>
					</g>
				</g>
			</g>
			<g>
				<g>
					<g>
						<path class="st8" d="M371.4,196.4c0,1.4-1,2.5-3.1,2.5c-1.2,0-2.4-0.4-3.1-1l0.5-0.9c0.6,0.5,1.5,0.9,2.5,0.9
							c1.2,0,2-0.6,2-1.5c0-0.9-0.6-1.5-2.1-1.5h-0.7v-0.8l2.1-2.6h-4v-1h5.5v0.8l-2.2,2.7C370.6,194.1,371.4,195.1,371.4,196.4z"/>
					</g>
				</g>
			</g>
			<g>
				<g>
					<g>
						<path class="st8" d="M365.3,238.8c0-2.7,1.4-4.3,3.4-4.3c1.9,0,3.4,1.5,3.4,4.3c0,2.7-1.5,4.3-3.4,4.3
							C366.7,243,365.3,241.5,365.3,238.8z M370.9,238.8c0-2.1-0.9-3.2-2.2-3.2c-1.3,0-2.2,1.1-2.2,3.2c0,2.1,0.9,3.2,2.2,3.2
							C369.9,241.9,370.9,240.9,370.9,238.8z"/>
					</g>
				</g>
			</g>
			<g>
				<g>
					<g>
						<path class="st8" d="M418.4,239c0-0.2,0-0.4,0.2-0.9l0.6-1.7h0.7l-0.4,1.8c0.3,0.1,0.5,0.4,0.5,0.7c0,0.5-0.3,0.8-0.8,0.8
							C418.7,239.8,418.4,239.4,418.4,239z"/>
					</g>
				</g>
			</g>
			<g>
				<g>
					<g>
						<g>
							<rect x="438.1" y="221.9" class="st8" width="8.1" height="0.9"/>
						</g>
					</g>
				</g>
				<g>
					<g>
						<g>
							<rect x="438.1" y="224.5" class="st8" width="8.1" height="0.9"/>
						</g>
					</g>
				</g>
			</g>
			<g>
				<g>
					<g>
						<g>
							<g>
								<rect x="440" y="194.4" class="st8" width="6.1" height="0.6"/>
							</g>
						</g>
					</g>
					<g>
						<g>
							<g>
								<path class="st8" d="M446.4,195.3h-6.7v-1.3h6.7V195.3z M440.3,194.7l5.5,0L440.3,194.7z"/>
							</g>
						</g>
					</g>
				</g>
				<g>
					<g>
						<g>
							<g>
								
									<rect x="440" y="194.4" transform="matrix(6.123234e-17 -1 1 6.123234e-17 248.3558 637.7665)" class="st8" width="6.1" height="0.6"/>
							</g>
						</g>
					</g>
					<g>
						<g>
							<g>
								<path class="st8" d="M443.7,198.1h-1.3v-6.7h1.3V198.1z M443.1,197.4L443.1,197.4V192V197.4z"/>
							</g>
						</g>
					</g>
				</g>
			</g>
			<g>
				<g>
					<g>
						<polygon class="st8" points="421,215.7 420.1,214.8 418.2,216.7 416.3,214.8 415.4,215.7 417.3,217.6 415.4,219.6 
							416.3,220.5 418.2,218.5 420.1,220.5 421,219.6 419.1,217.6 						"/>
					</g>
				</g>
			</g>
			<g>
				<g>
					<g>
						<g>
							<g>
								<rect x="415.6" y="194.4" class="st8" width="6.1" height="0.6"/>
							</g>
						</g>
					</g>
					<g>
						<g>
							<g>
								<path class="st8" d="M422,195.3h-6.7v-1.3h6.7V195.3z M415.9,194.7l5.5,0L415.9,194.7z"/>
							</g>
						</g>
					</g>
				</g>
			</g>
			<g>
				<g>
					<g>
						<path class="st8" d="M399.6,156.2v15.6h-1.1v-14.6h-3.8v-1H399.6z"/>
					</g>
				</g>
				<g>
					<g>
						<path class="st8" d="M414.2,156.2v0.8l-6.7,14.8h-1.2l6.6-14.6h-8.8v3H403v-4H414.2z"/>
					</g>
				</g>
				<g>
					<g>
						<path class="st8" d="M426.3,167.4c0,2.6-1.9,4.5-5.5,4.5c-2.3,0-4.4-0.8-5.5-2.1l0.6-0.9c1,1.1,2.8,1.9,4.9,1.9
							c2.8,0,4.3-1.3,4.3-3.5c0-2.1-1.4-3.5-4.5-3.5h-1v-0.8l4.6-5.9h-8.3v-1h9.8v0.8l-4.7,6C424.5,163.1,426.3,164.8,426.3,167.4z"
							/>
					</g>
				</g>
				<g>
					<g>
						<path class="st8" d="M440.4,167.5c0,2.7-2.3,4.4-5.9,4.4c-3.7,0-5.9-1.7-5.9-4.4c0-2,1.2-3.3,3.3-3.9
							c-1.8-0.6-2.8-1.8-2.8-3.5c0-2.5,2.1-4,5.3-4c3.2,0,5.4,1.5,5.4,4c0,1.7-1,2.9-2.8,3.5C439.2,164.2,440.4,165.5,440.4,167.5z
							 M439.3,167.5c0-2.1-1.8-3.4-4.8-3.4c-3,0-4.7,1.3-4.7,3.4c0,2.1,1.7,3.4,4.7,3.4C437.5,170.9,439.3,169.6,439.3,167.5z
							 M434.5,163.2c2.7,0,4.2-1.2,4.2-3c0-1.9-1.6-3.1-4.2-3.1s-4.2,1.2-4.2,3.1C430.3,162,431.8,163.2,434.5,163.2z"/>
					</g>
				</g>
			</g>
			<g>
				<g>
					<path class="st7" d="M313.2,151c0.4,1.8-1.2,3.5-3,3c-0.9-0.2-1.6-0.9-1.8-1.8c-0.4-1.8,1.2-3.5,3-3
						C312.2,149.4,312.9,150.2,313.2,151z"/>
				</g>
				<g>
					<path class="st7" d="M321.5,151c0.4,1.8-1.2,3.5-3,3c-0.9-0.2-1.6-0.9-1.8-1.8c-0.4-1.8,1.2-3.5,3-3
						C320.6,149.4,321.3,150.2,321.5,151z"/>
				</g>
				<g>
					<path class="st7" d="M329.2,151c0.4,1.8-1.2,3.5-3,3c-0.9-0.2-1.6-0.9-1.8-1.8c-0.4-1.8,1.2-3.5,3-3
						C328.3,149.4,329,150.2,329.2,151z"/>
				</g>
			</g>
			<g>
				<g>
					<path class="st8" d="M301.7,241.1c0,0,0,0.1,0,0.3c0,0.2,0,0.6,0.1,1c0.2,0.8,0.7,2.2,2,3.2c0.6,0.5,1.5,1,2.5,1.1
						c0.5,0.1,1,0.1,1.6,0.1c0.6,0,1.1,0,1.7,0c2.4,0,5.2,0,8.3,0c12.5,0,30.5,0,52.8-0.1c22.3,0,48.8,0,78.3,0
						c1.8,0.1,3.6-0.7,4.7-2.3c0.5-0.8,0.9-1.7,1-2.6c0.1-0.9,0-2,0-3c0-4,0-8,0-12.1c0-8.2,0-16.5,0-25c0-16.9,0-34.5,0-52.5
						c0-2.2-1.3-4.3-3.2-5.1c-0.5-0.2-1-0.3-1.5-0.4c-0.5,0-1,0-1.6,0c-1.1,0-2.1,0-3.2,0c-4.2,0-8.4,0-12.5,0c-8.3,0-16.4,0-24.5,0
						c-16,0-31.5,0-46.2,0c-14.7,0-28.7,0-41.8,0c-3.3,0-6.5,0-9.7,0c-0.8,0-1.6,0-2.4,0c-0.8,0-1.6-0.1-2.3,0.1
						c-1.5,0.3-2.8,1.4-3.5,2.8c-0.4,0.7-0.6,1.4-0.6,2.2c0,0.8,0,1.6,0,2.4c0,1.6,0,3.1,0,4.7c0,3.1,0,6.1,0,9
						c0,23.6-0.1,42.6-0.1,55.8c0,6.6,0,11.7,0,15.2c0,1.7,0,3,0,3.9C301.7,240.7,301.7,241.1,301.7,241.1s0-0.5,0-1.3
						c0-0.9,0-2.2,0-3.9c0-3.5,0-8.6,0-15.2c0-13.2,0-32.2-0.1-55.8c0-2.9,0-6,0-9c0-1.5,0-3.1,0-4.7c0-0.8,0-1.6,0-2.4
						c0.1-0.8,0.3-1.6,0.7-2.4c0.7-1.5,2.1-2.6,3.7-2.9c0.8-0.2,1.6-0.1,2.4-0.2c0.8,0,1.6,0,2.4,0c3.2,0,6.4,0,9.7,0
						c13.1,0,27.1,0,41.8,0c14.7,0,30.2,0,46.2,0c8,0,16.2,0,24.5,0c4.1,0,8.3,0,12.5,0c1,0,2.1,0,3.2,0c0.5,0,1,0,1.6,0
						c0.5,0.1,1.1,0.2,1.6,0.4c2,0.9,3.5,3.2,3.4,5.5c0,18,0,35.5,0,52.5c0,8.5,0,16.8,0,25c0,4.1,0,8.1,0,12.1c0,1,0,2,0,3
						c-0.1,1-0.5,2-1,2.8c-1.1,1.7-3.1,2.6-5,2.5c-29.5,0-56,0-78.3,0c-22.3,0-40.3-0.1-52.8-0.1c-3.1,0-5.9,0-8.3,0
						c-0.6,0-1.2,0-1.7,0c-0.6,0-1.1,0-1.6-0.1c-1-0.2-1.9-0.6-2.5-1.1c-1.3-1.1-1.8-2.4-2-3.3c-0.1-0.4-0.1-0.8-0.1-1
						C301.7,241.2,301.7,241.1,301.7,241.1z"/>
				</g>
			</g>
			<g>
				<g>
					<path class="st8" d="M329.9,247.1c-0.1,0-0.3-14.8-0.3-33.1c0-18.3,0.1-33.1,0.3-33.1c0.1,0,0.3,14.8,0.3,33.1
						C330.2,232.3,330.1,247.1,329.9,247.1z"/>
				</g>
			</g>
			<g>
				<g>
					<path class="st8" d="M355.8,228.5c-0.1,0-0.3-10.7-0.3-23.8c0-13.2,0.1-23.8,0.3-23.8s0.3,10.7,0.3,23.8
						C356.1,217.8,356,228.5,355.8,228.5z"/>
				</g>
			</g>
			<g>
				<g>
					<path class="st8" d="M381.6,228.5c-0.1,0-0.3-10.7-0.3-23.8c0-13.2,0.1-23.8,0.3-23.8s0.3,10.7,0.3,23.8
						C381.8,217.8,381.7,228.5,381.6,228.5z"/>
				</g>
			</g>
			<g>
				<g>
					<path class="st8" d="M406,247c-0.1,0-0.3-14.8-0.3-33.1c0-18.3,0.1-33.1,0.3-33.1c0.1,0,0.3,14.8,0.3,33.1
						C406.2,232.2,406.1,247,406,247z"/>
				</g>
			</g>
			<g>
				<g>
					<path class="st8" d="M429.4,247c-0.1,0-0.3-14.8-0.3-33.1c0-18.3,0.1-33.1,0.3-33.1s0.3,14.8,0.3,33.1
						C429.6,232.2,429.5,247,429.4,247z"/>
				</g>
			</g>
			<g>
				<g>
					<path class="st8" d="M302.1,204.9c0-0.1,34.1-0.3,76.2-0.3c42.1,0,76.2,0.1,76.2,0.3c0,0.1-34.1,0.3-76.2,0.3
						C336.2,205.2,302.1,205,302.1,204.9z"/>
				</g>
			</g>
			<g>
				<g>
					<path class="st8" d="M302.1,228.7c0-0.1,28.5-0.3,63.7-0.3c35.2,0,63.7,0.1,63.7,0.3c0,0.1-28.5,0.3-63.7,0.3
						C330.6,229,302.1,228.9,302.1,228.7z"/>
				</g>
			</g>
		</g>
		<g>
			<g>
				<path class="st4" d="M240.6,184.8H71.9c-2.9,0-5.3-2.4-5.3-5.3V77.1c0-2.9,2.4-5.3,5.3-5.3h168.7c2.9,0,5.3,2.4,5.3,5.3v102.5
					C245.8,182.5,243.5,184.8,240.6,184.8z"/>
				<path class="st8" d="M240.6,185.3H71.9c-3.2,0-5.8-2.6-5.8-5.8V77.1c0-3.2,2.6-5.8,5.8-5.8h168.7c3.2,0,5.8,2.6,5.8,5.8v102.5
					C246.3,182.7,243.7,185.3,240.6,185.3z M71.9,72.3c-2.6,0-4.8,2.1-4.8,4.8v102.5c0,2.6,2.1,4.8,4.8,4.8h168.7
					c2.6,0,4.8-2.1,4.8-4.8V77.1c0-2.6-2.1-4.8-4.8-4.8H71.9z"/>
			</g>
			<g>
				<g>
					<g>
						<g>
							<g>
								<g>
									<path class="st3" d="M236.6,165.5h-160V97h160V165.5z M77,165.2h159.2V97.3H77V165.2z"/>
								</g>
							</g>
						</g>
						<g>
							<g>
								<g>
									<rect x="76.9" y="153.8" class="st3" width="159.6" height="0.3"/>
								</g>
							</g>
						</g>
						<g>
							<g>
								<g>
									<rect x="76.9" y="142.4" class="st3" width="159.6" height="0.3"/>
								</g>
							</g>
						</g>
						<g>
							<g>
								<g>
									<rect x="76.9" y="131.1" class="st3" width="159.6" height="0.3"/>
								</g>
							</g>
						</g>
						<g>
							<g>
								<g>
									<rect x="76.9" y="119.7" class="st3" width="159.6" height="0.3"/>
								</g>
							</g>
						</g>
						<g>
							<g>
								<g>
									<rect x="76.9" y="108.4" class="st3" width="159.6" height="0.3"/>
								</g>
							</g>
						</g>
					</g>
					<g>
						<g>
							<g>
								<g>
									<rect x="92" y="119" class="st9" width="5.3" height="46.1"/>
								</g>
							</g>
						</g>
						<g>
							<g>
								<g>
									<rect x="100.3" y="107.9" class="st13" width="6.5" height="57.2"/>
								</g>
							</g>
						</g>
					</g>
					<g>
						<g>
							<g>
								<g>
									<rect x="128.8" y="152" class="st9" width="5.3" height="13.1"/>
								</g>
							</g>
						</g>
						<g>
							<g>
								<g>
									<rect x="137.1" y="125.1" class="st13" width="5.3" height="40"/>
								</g>
							</g>
						</g>
					</g>
					<g>
						<g>
							<g>
								<g>
									<rect x="163.1" y="99.3" class="st9" width="5.3" height="65.8"/>
								</g>
							</g>
						</g>
						<g>
							<g>
								<g>
									<rect x="172.7" y="149.4" class="st13" width="5.3" height="15.7"/>
								</g>
							</g>
						</g>
					</g>
					<g>
						<g>
							<g>
								<g>
									<rect x="197.4" y="106" class="st9" width="5.3" height="59.1"/>
								</g>
							</g>
						</g>
						<g>
							<g>
								<g>
									<rect x="205.8" y="131.1" class="st13" width="5.3" height="34"/>
								</g>
							</g>
						</g>
						<g>
							<g>
								<g>
									<rect x="223.2" y="160.5" class="st9" width="5.3" height="4.6"/>
								</g>
							</g>
						</g>
					</g>
				</g>
				<g>
					<g>
						<path class="st7" d="M103.7,172.9H92.9c-0.5,0-0.8-0.4-0.8-0.8v-0.5c0-0.5,0.4-0.8,0.8-0.8h10.7c0.5,0,0.8,0.4,0.8,0.8v0.5
							C104.5,172.6,104.1,172.9,103.7,172.9z"/>
					</g>
				</g>
				<g>
					<g>
						<path class="st7" d="M139.5,172.9h-10.7c-0.5,0-0.8-0.4-0.8-0.8v-0.5c0-0.5,0.4-0.8,0.8-0.8h10.7c0.5,0,0.8,0.4,0.8,0.8v0.5
							C140.3,172.6,139.9,172.9,139.5,172.9z"/>
					</g>
				</g>
				<g>
					<g>
						<path class="st7" d="M171.1,172.9h-10.7c-0.5,0-0.8-0.4-0.8-0.8v-0.5c0-0.5,0.4-0.8,0.8-0.8h10.7c0.5,0,0.8,0.4,0.8,0.8v0.5
							C171.9,172.6,171.5,172.9,171.1,172.9z"/>
					</g>
				</g>
				<g>
					<g>
						<path class="st7" d="M203.7,172.9h-10.7c-0.5,0-0.8-0.4-0.8-0.8v-0.5c0-0.5,0.4-0.8,0.8-0.8h10.7c0.5,0,0.8,0.4,0.8,0.8v0.5
							C204.5,172.6,204.1,172.9,203.7,172.9z"/>
					</g>
				</g>
				<g>
					<g>
						<path class="st7" d="M231.3,172.9h-10.7c-0.5,0-0.8-0.4-0.8-0.8v-0.5c0-0.5,0.4-0.8,0.8-0.8h10.7c0.5,0,0.8,0.4,0.8,0.8v0.5
							C232.1,172.6,231.7,172.9,231.3,172.9z"/>
					</g>
				</g>
			</g>
			<g>
				<g>
					<g>
						<path class="st7" d="M81.6,84.3c0,1.4-1.1,2.4-2.4,2.4c-1.4,0-2.4-1.1-2.4-2.4c0-1.4,1.1-2.4,2.4-2.4
							C80.5,81.9,81.6,83,81.6,84.3z"/>
					</g>
				</g>
				<g>
					<g>
						<path class="st7" d="M88.4,84.3c0,1.4-1.1,2.4-2.4,2.4c-1.4,0-2.4-1.1-2.4-2.4c0-1.4,1.1-2.4,2.4-2.4
							C87.3,81.9,88.4,83,88.4,84.3z"/>
					</g>
				</g>
				<g>
					<g>
						<path class="st7" d="M95.2,84.3c0,1.4-1.1,2.4-2.4,2.4s-2.4-1.1-2.4-2.4c0-1.4,1.1-2.4,2.4-2.4S95.2,83,95.2,84.3z"/>
					</g>
				</g>
			</g>
		</g>
		<g>
			<path class="st14" d="M128.4,315.8c-0.9,1,6.3,12.6,9.2,20c2.9,7.4,17.3,41.5,29.6,41.8c12.3,0.2,21.6-5.4,29.7-16.7
				c8-11.4,21.4-71.6,21.4-71.6l-21.8-21.8l-25.2,71.1c0,0-20.4-25.2-24.4-28C142.6,307.8,128.4,315.8,128.4,315.8z"/>
		</g>
		<g>
			<g>
				<path class="st8" d="M332.2,422.2l-5.5-41.1l-114.8,3.2c0,0-10,59.7-9.5,84.4h66.4l0.6-8.3l3.5,0.8c0,0,0.8,3.3,1.8,7.5L339,469
					L332.2,422.2z"/>
			</g>
			<g>
				<g>
					<path class="st9" d="M213.7,315.4L180.2,304c0,0,18.3-72.5,43.9-72.5L213.7,315.4z"/>
				</g>
				<g>
					<path class="st9" d="M321.6,337.2l-4-108.6c-6.3-2.9-33.1-6.3-33.1-6.3l-34.9,4.9l-29.1,5l-7.8,74.2l-3.3,102.6
						c37.3,13.8,82.9,9.1,122.9-1.1L321.6,337.2z"/>
				</g>
				<g class="st12">
					<path d="M255.3,275c0,0,19.5,41.4,36.8,56.8c17.3,15.4,31.6,18.8,31.6,18.8l-2.1-13.4L255.3,275z"/>
				</g>
				<g>
					<g>
						<path class="st8" d="M213.7,260.2c0.1,0-0.2,11.3-0.8,25.3c-0.6,14-1.1,25.3-1.3,25.3c-0.1,0,0.2-11.3,0.8-25.3
							C213,271.5,213.6,260.2,213.7,260.2z"/>
					</g>
				</g>
				<g>
					<path class="st9" d="M310.8,226.7c0,0,30.9,2.8,35,35c1.9,14.9,5.4,38.4,5.4,38.4l-30.3,2.6l-4.2-3.1c-2.3-7-6.4-21.3-5.8-21.8
						C311.6,277.1,310.8,226.7,310.8,226.7z"/>
				</g>
				<g>
					<g>
						<path class="st8" d="M244.2,367.9c0,0,0.5-0.4,1.3-1.1c0.9-0.7,2.2-1.6,3.8-2.7c3.3-2.2,7.9-5.2,13.1-8.2
							c5.2-3,10.1-5.5,13.7-7.1c1.8-0.8,3.2-1.5,4.3-1.9c1-0.4,1.6-0.7,1.6-0.6c0,0-0.5,0.3-1.5,0.8c-1.1,0.5-2.5,1.2-4.2,2.1
							c-3.5,1.8-8.4,4.3-13.6,7.3c-5.2,3-9.8,5.9-13.1,8c-1.6,1-2.9,1.9-3.9,2.6C244.8,367.6,244.2,367.9,244.2,367.9z"/>
					</g>
				</g>
				<g>
					<g>
						<path class="st8" d="M261.6,362c0-0.1,0.8-0.7,2.3-1.5c1.5-0.8,3.6-1.9,6.1-2.8c2.5-0.9,4.8-1.6,6.4-1.9
							c1.7-0.4,2.7-0.5,2.7-0.4c0,0.1-1,0.3-2.7,0.8c-1.6,0.5-3.9,1.1-6.3,2.1c-2.4,0.9-4.6,1.9-6.1,2.7
							C262.5,361.6,261.6,362.1,261.6,362z"/>
					</g>
				</g>
				<g>
					<g>
						<path class="st8" d="M315,298.5c-0.1,0,0.3-9.8,0.9-21.8c0.6-12,1.3-21.8,1.4-21.8c0.1,0-0.3,9.8-0.9,21.8
							C315.8,288.8,315.1,298.5,315,298.5z"/>
					</g>
				</g>
			</g>
			<g>
				<g>
					<g>
						<g>
							<g>
								<g>
									<g>
										<g>
											<path class="st8" d="M217.4,163.1c-3.7,1.5-8.4,0.1-10.6-3.2c-0.7-1-1.2-2.2-1.1-3.4c0.1-1.2,0.9-2.4,2-2.7
												c-1.8-0.7-3.4-2-4.2-3.8c-0.8-1.8-0.6-4,0.6-5.6c1.2-1.6,3.4-2.3,5.2-1.7c-0.6-2,0.2-4.4,1.8-5.7l8.8-0.2L217.4,163.1z"
												/>
										</g>
									</g>
								</g>
							</g>
							<g>
								<g>
									<g>
										<g>
											<path class="st14" d="M247.2,228.4l-1.5-6c0,0-18.1,1.5-22.6-15.8c-2.2-8.4-5.2-26-7.8-42.1
												c-2.8-17.2,8.2-33.6,25.1-37.8l1.7-0.4c18.4-3.4,31.5,10.4,34.4,28.9l9.4,67.7l-27.8,20.9L247.2,228.4z"/>
										</g>
									</g>
								</g>
							</g>
							<g>
								<g>
									<g>
										<g>
											<path class="st15" d="M245.6,222.4c0,0,11.2-1.8,21.6-10.4c0,0-2.6,12.1-20.4,14.8L245.6,222.4z"/>
										</g>
									</g>
								</g>
							</g>
							<g>
								<g>
									<g>
										<g>
											<path class="st8" d="M224.4,181.5c0.3,1.3,1.6,2.2,3,1.9c1.4-0.3,2.3-1.5,2-2.9c-0.3-1.3-1.6-2.2-3-1.9
												C225,178.9,224.1,180.2,224.4,181.5z"/>
										</g>
									</g>
								</g>
							</g>
							<g>
								<g>
									<g>
										<g>
											<path class="st8" d="M221.1,172.1c0.4,0.2,1.9-1.6,4.6-2.3c2.7-0.7,5,0.2,5.2-0.2c0.1-0.2-0.3-0.7-1.4-1.1
												c-1-0.4-2.6-0.7-4.2-0.3c-1.7,0.4-2.9,1.4-3.6,2.2C221.1,171.4,220.9,172,221.1,172.1z"/>
										</g>
									</g>
								</g>
							</g>
							<g>
								<g>
									<g>
										<g>
											<path class="st8" d="M247.2,176.4c0.3,1.3,1.6,2.2,3,1.9c1.4-0.3,2.3-1.5,2-2.9c-0.3-1.3-1.6-2.2-3-1.9
												C247.8,173.8,246.9,175.1,247.2,176.4z"/>
										</g>
									</g>
								</g>
							</g>
							<g>
								<g>
									<g>
										<g>
											<path class="st8" d="M247.6,166.2c0.4,0.2,1.9-1.6,4.6-2.3c2.7-0.7,5,0.2,5.2-0.2c0.1-0.2-0.3-0.7-1.4-1.1
												c-1-0.4-2.6-0.7-4.2-0.3c-1.7,0.4-2.9,1.4-3.6,2.2C247.5,165.4,247.4,166.1,247.6,166.2z"/>
										</g>
									</g>
								</g>
							</g>
							<g>
								<g>
									<g>
										<g>
											<path class="st8" d="M242.7,188.5c0-0.2-1.8,0-4.5,0.3c-0.7,0.1-1.4,0.1-1.6-0.3c-0.3-0.5-0.2-1.3,0-2.1
												c0.2-1.8,0.5-3.7,0.8-5.7c1-8.1,1.5-14.7,1.2-14.7c-0.3,0-1.4,6.5-2.4,14.6c-0.2,2-0.5,3.9-0.7,5.7
												c-0.1,0.8-0.3,1.8,0.3,2.8c0.3,0.5,0.9,0.7,1.4,0.7c0.5,0,0.9-0.1,1.2-0.1C241.1,189,242.7,188.6,242.7,188.5z"/>
										</g>
									</g>
								</g>
							</g>
							<g>
								<g>
									<g>
										<g>
											<path class="st8" d="M245.2,162.2c0.6,0.6,2.9-1,6-2.1c3.1-1.1,5.8-1.4,5.9-2.2c0-0.4-0.7-0.8-2-1
												c-1.3-0.2-3.1-0.1-4.9,0.6c-1.8,0.7-3.3,1.7-4.1,2.7C245.2,161.1,245,161.9,245.2,162.2z"/>
										</g>
									</g>
								</g>
							</g>
							<g>
								<g>
									<g>
										<g>
											<path class="st8" d="M220.2,164.1c0.6,0.5,2.3-0.6,4.5-1.2c2.2-0.6,4.2-0.6,4.5-1.3c0.1-0.4-0.3-0.9-1.3-1.3
												c-0.9-0.4-2.4-0.5-3.9-0.1c-1.5,0.4-2.7,1.3-3.3,2.1C220.1,163.2,219.9,163.9,220.2,164.1z"/>
										</g>
									</g>
								</g>
							</g>
							<g>
								<g>
									<g>
										<g>
											<path class="st8" d="M215,156.1c0,0,1.9-12,6.6-15.9c5.6-4.6,10.1,1.7,15.7-1.5c5.7-3.2,11-7.6,18.4-4.4
												c8,3.5,5.7,7.9,8.1,15.5c9.3,31,17.2,38.4,15.3,23.3c-0.2-1.7,4-4,3-11c-1.3-9.1-3.6-19.9-7.1-25.7
												c-3-4.9-6.9-7.8-13.3-10.5c-10.1-4.3-21.9-1.6-29.7,1.2C224.1,129.7,211,142.6,215,156.1z"/>
										</g>
									</g>
								</g>
							</g>
							<g>
								<g>
									<g>
										<g>
											<path class="st14" d="M277.8,172.9c-0.5-2.7,1.3-5.4,4-5.8c3.3-0.5,7.4,0.5,8.8,7.3c2.5,12-10.1,12.1-10.2,11.7
												C280.4,185.8,278.8,177.9,277.8,172.9z"/>
										</g>
									</g>
								</g>
							</g>
							<g>
								<g>
									<g>
										<g>
											<path class="st15" d="M282.1,181c0,0,0.2,0.1,0.6,0.2c0.4,0.1,1,0.1,1.6-0.3c1.2-0.7,1.8-3,1.4-5.1
												c-0.2-1.1-0.6-2.1-1.2-2.9c-0.6-0.8-1.2-1.3-1.9-1.3c-0.7,0-1,0.5-1.1,0.8c-0.1,0.4,0,0.6,0,0.6c0,0-0.3-0.1-0.3-0.7
												c0-0.2,0.1-0.6,0.3-0.9c0.2-0.3,0.6-0.5,1.1-0.5c0.9-0.1,2,0.5,2.6,1.4c0.7,0.8,1.2,2,1.4,3.2c0.4,2.4-0.3,5-2,5.8
												c-0.8,0.4-1.6,0.3-2,0.1C282.2,181.2,282.1,181,282.1,181z"/>
										</g>
									</g>
								</g>
							</g>
							<g>
								<g>
									<g>
										<g>
											<path class="st9" d="M230.8,149.9C230.8,149.9,230.8,150,230.8,149.9c-0.2,0.1-0.2,0.1-0.3,0.1L230.8,149.9z"/>
										</g>
									</g>
								</g>
							</g>
							<g>
								<g>
									<g>
										<g>
											<path class="st8" d="M203.9,134.4c0.3-3.3,2.7-6.1,5.6-7.7c2.9-1.5,6.3-1.9,9.6-1.9c-1.2-4.3,2.8-8.6,7.2-9.4
												c4.4-0.8,8.8,0.9,13,2.6c4.6-4.4,13-3.7,16.8,1.4c2.8-2.4,6.9-3.2,10.4-2c3.5,1.2,6.2,4.4,6.9,8c3-0.1,5.9,1.6,7.3,4.2
												c1.4,2.6,1.3,6-0.3,8.4c2.3,0.8,3.9,3.3,3.8,5.7c-0.1,2.4-1.9,4.7-4.3,5.3l-10.3-5.8c-4.6,1.9-10.5-1.1-11.7-5.8
												c-3.3,2.2-8,2.1-11.3-0.2c-0.3,2.4-1.9,4.6-4.1,5.7c-2.2,1.1-4.9,1-7-0.2c0.4,3.3-1.3,6.7-4.1,8.5
												c-2.8,1.7-6.7,1.7-9.4-0.2c-2.5,3.1-7.5,3.9-10.8,1.7c-3.3-2.3-4.4-7.2-2.4-10.6C205.7,141.3,203.6,137.7,203.9,134.4z"
												/>
										</g>
									</g>
								</g>
							</g>
							<g>
								<g>
									<g>
										<g>
											<path class="st13" d="M259,139.3c0,0,0.1,0.4,0.4,0.9c0.4,0.6,1.1,1.3,2.2,1.9c1.1,0.6,2.7,1,4.3,0.5
												c1.7-0.4,3.4-1.6,4.3-3.4l-0.7,0.1c0.8,0.7,1.8,1.3,2.8,1.7c2.3,0.8,4.8,0.4,6.5-0.7c1.8-1.1,2.8-2.9,3.2-4.4
												c0.4-1.5,0.3-2.8,0.1-3.6c-0.2-0.8-0.5-1.2-0.5-1.2c-0.2,0,0.7,1.9-0.2,4.6c-0.4,1.3-1.4,2.9-3,3.8
												c-1.6,1-3.8,1.2-5.8,0.6c-1-0.3-1.8-0.8-2.5-1.5l-0.4-0.4l-0.3,0.5c-0.8,1.6-2.2,2.7-3.7,3.1c-1.5,0.4-2.9,0.2-3.9-0.3
												C259.7,140.6,259.1,139.2,259,139.3z"/>
										</g>
									</g>
								</g>
							</g>
						</g>
					</g>
				</g>
				<g>
					<g>
						<path class="st8" d="M252.3,193.5c0,0.2-1.5,0.2-2.9,1.1c-1.5,0.9-2.1,2.3-2.2,2.2c-0.1,0,0-0.4,0.3-0.9
							c0.3-0.5,0.8-1.2,1.6-1.7c0.8-0.5,1.6-0.7,2.2-0.8C251.9,193.3,252.3,193.4,252.3,193.5z"/>
					</g>
				</g>
			</g>
			<g>
				<g>
					<g>
						<g>
							<g>
								<g>
									<g>
										<g>
											<g>
												<g>
													<g>
														<g>
															<g>
																<g>
																	<path class="st13" d="M241.9,267.7l-2.3,3c-1.6,0.9-3,0.2-3.8-1.8l-18.8-35l5.6-2.9l21.2,33.8
																		C243.8,264.8,244,266.5,241.9,267.7z"/>
																</g>
															</g>
														</g>
													</g>
												</g>
											</g>
										</g>
									</g>
								</g>
							</g>
						</g>
					</g>
					<g>
						<g>
							<g>
								<g>
									<g>
										<g>
											<g>
												<g>
													<g>
														<g>
															<g>
																<g>
																	<path class="st8" d="M194.5,231.4c-4-2.8-7.3-6.8-9.1-11.7c-2.2-6.1-1.9-12.7,0.8-18.6c2.8-5.9,7.6-10.3,13.7-12.5
																		c12.6-4.6,26.5,2,31.1,14.6l0,0c2.2,6.1,1.9,12.7-0.8,18.6c-2.8,5.9-7.6,10.3-13.7,12.5
																		C208.9,237,200.8,235.6,194.5,231.4z M221.1,192.7c-5.8-4-13.4-5.2-20.5-2.6c-5.7,2.1-10.2,6.2-12.8,11.7
																		c-2.6,5.5-2.8,11.6-0.8,17.3c2.1,5.7,6.2,10.2,11.7,12.8c5.5,2.6,11.6,2.8,17.3,0.8c5.7-2.1,10.2-6.2,12.8-11.7
																		c2.6-5.5,2.8-11.6,0.8-17.3C227.9,199,224.9,195.3,221.1,192.7z"/>
																</g>
															</g>
														</g>
													</g>
												</g>
											</g>
										</g>
									</g>
								</g>
							</g>
							<g>
								<g>
									<g>
										<g>
											<g>
												<g>
													<g>
														<g>
															<g>
																<g>
																	<path class="st13" d="M195.6,230.4c-4-2.8-7.3-6.8-9.1-11.7c-2.2-6.1-1.9-12.7,0.8-18.6
																		c2.8-5.9,7.6-10.3,13.7-12.5c12.6-4.6,26.5,2,31.1,14.6l0,0c2.2,6.1,1.9,12.7-0.8,18.6
																		c-2.8,5.9-7.6,10.3-13.7,12.5C210,236,201.9,234.7,195.6,230.4z M222.2,191.8c-5.8-4-13.4-5.2-20.5-2.6
																		c-5.7,2.1-10.2,6.2-12.8,11.7c-2.6,5.5-2.8,11.6-0.8,17.3c2.1,5.7,6.2,10.2,11.7,12.8c5.5,2.6,11.6,2.8,17.3,0.8
																		c5.7-2.1,10.2-6.2,12.8-11.7c2.6-5.5,2.8-11.6,0.8-17.3C229,198.1,226,194.3,222.2,191.8z"/>
																</g>
															</g>
														</g>
													</g>
												</g>
											</g>
										</g>
									</g>
								</g>
							</g>
						</g>
					</g>
					<g>
						<g>
							<g>
								<g>
									<path class="st4" d="M202.5,230c0-0.1,1.1,0.4,2.9,0.9c0.2,0,0.5,0.1,0.7,0.2c0.3,0.1,0.5,0.1,0.8,0.1
										c0.5,0.1,1.1,0.1,1.8,0.2c1.2,0,2.6,0,4-0.3c1.4-0.3,2.7-0.7,3.9-1.1c0.6-0.3,1.1-0.5,1.6-0.8c0.2-0.1,0.5-0.2,0.7-0.4
										c0.2-0.1,0.4-0.3,0.6-0.4c1.6-1,2.4-1.9,2.5-1.8c0,0-0.2,0.2-0.6,0.6c-0.2,0.2-0.4,0.4-0.7,0.6c-0.3,0.2-0.6,0.5-1,0.8
										c-0.2,0.1-0.4,0.3-0.6,0.4c-0.2,0.1-0.5,0.3-0.7,0.4c-0.5,0.3-1,0.5-1.6,0.8c-1.2,0.5-2.5,0.9-3.9,1.2
										c-1.4,0.2-2.8,0.3-4.1,0.3c-0.6,0-1.2-0.1-1.8-0.2c-0.3,0-0.5-0.1-0.8-0.1c-0.3-0.1-0.5-0.1-0.7-0.2
										c-0.5-0.1-0.9-0.2-1.2-0.4c-0.4-0.1-0.7-0.2-0.9-0.3C202.8,230.2,202.5,230,202.5,230z"/>
								</g>
							</g>
						</g>
					</g>
					<g>
						<g>
							<g>
								<g>
									<path class="st14" d="M276.2,270.3c-5.8-5.6-33.3-33.1-33.9-33.5c-0.8-0.5-13.9-6.4-16.6-5.1c-2.7,1.3-10.4,9.4-10.4,9.4
										s0.2,5.5,6.6,2.1c4.9-2.5,5.6-2.9,5.7-3c0,0,0,0,0,0l6.3,2.1c0,0-8.1,2.6-9.9,4.2c-1.8,1.6-5,7.9-3.5,9.6
										c1.5,1.7,3.4,2,3.4,2s-3.6,4.3,1.9,7.6c0,0,0.5,3.9,3.2,5.7c2.7,1.8,8,1.7,8,1.7s2.6-1.2,1-3.8c-1.6-2.6-4.9-3.2-4.9-3.2
										l4.4-2.1c0,0,2.1,0.8,5.1,3.6c0,0,8.7,9.4,12.7,7l5.7,6.8C265.1,278.6,276.2,270.3,276.2,270.3z"/>
								</g>
								<g>
									<g>
										<g>
											<g>
												<g>
													<path class="st15" d="M236.3,256.1c0,0-0.2,0-0.6,0c-0.4,0-1,0.1-1.7,0.2c-1.4,0.3-3.3,1.1-4.9,2.6
														c-1.6,1.5-2.6,3.3-3,4.7c-0.2,0.7-0.3,1.2-0.4,1.6c-0.1,0.4-0.1,0.6,0,0.6c0.1,0,0.1-0.9,0.6-2.2
														c0.5-1.3,1.4-3.1,3-4.5c1.6-1.4,3.4-2.2,4.8-2.6C235.4,256.1,236.3,256.1,236.3,256.1z"/>
												</g>
											</g>
										</g>
									</g>
								</g>
								<g>
									<g>
										<g>
											<g>
												<g>
													<path class="st15" d="M237.2,249.1c0,0-0.2,0-0.7,0c-0.2,0-0.5,0-0.8,0.1c-0.3,0-0.6,0.1-1,0.1
														c-0.8,0.1-1.6,0.4-2.6,0.7c-0.9,0.4-1.9,0.9-2.9,1.5c-1,0.6-1.8,1.3-2.6,2c-0.7,0.7-1.3,1.4-1.7,2
														c-0.2,0.3-0.4,0.6-0.6,0.9c-0.2,0.3-0.3,0.5-0.4,0.7c-0.2,0.4-0.3,0.6-0.3,0.6c0.1,0,0.5-0.8,1.4-2
														c0.4-0.6,1-1.3,1.8-2c0.7-0.7,1.6-1.4,2.5-2c1-0.6,2.1-1.3,3-1.7c0.9-0.4,1.7-0.4,2.4-0.6
														C236.2,249.2,237.2,249.2,237.2,249.1z"/>
												</g>
											</g>
										</g>
									</g>
								</g>
								<g>
									<g>
										<g>
											<g>
												<g>
													<path class="st15" d="M239.1,241.2c0,0-0.3-0.2-0.9-0.3c-0.5-0.1-1.3-0.1-2.2,0.2c-1.1,0.4-1.5,0.8-1.9,1.1
														c-0.4,0.4-0.6,0.7-0.5,0.7c0.1,0.1,0.9-1,2.5-1.5C237.7,240.9,239,241.3,239.1,241.2z"/>
												</g>
											</g>
										</g>
									</g>
								</g>
							</g>
						</g>
					</g>
				</g>
				<g class="st10">
					<g>
						<path d="M226.2,201.1c-0.5-1-1.2-1.9-2.2-2.2c-1.1-0.2-2.2,0.5-2.8,1.5c-0.6,1-0.7,2.1-0.8,3.2c-0.3,2.8-0.6,5.7-1.7,8.4
							c-1,2.7-2.9,5.1-5.5,6.3c-2.1,1-4.5,1-6.8,1.1c-2.3,0.1-4.7,0.3-6.7,1.5c0,0,0,0-0.1,0c-2.8,1.8-2.4,5.9,0.6,7.3
							c6.9,3.1,15.6,2,21.3-2.9C228.3,219.6,230.3,209,226.2,201.1z"/>
					</g>
				</g>
				<g>
					<path class="st14" d="M349.1,299.7l-28.4,2.4l0,0c-6.5-4.3-52.2-39.7-53.5-40.7L255.3,275c24.9,30.2,42.4,52.3,63.4,67.8
						c10.4,7.7,27.3,3.5,31.6-10.5C352.4,325.5,349.1,299.7,349.1,299.7z"/>
				</g>
			</g>
			<g class="st12">
				<path d="M205.6,469.3c0,0,10.2,1.4,10.9,1.6c0.2,0.1,27.7,0.1,27.7,0.1l-0.7-12.7l-31.2,0.7L205.6,469.3z"/>
			</g>
			<g class="st12">
				<path d="M206.3,457.6c0,0,10.4,2.1,10.9,1.6c0.6-0.5,26.2-0.9,26.2-0.9l-0.7-10.2l-31.2-1L206.3,457.6z"/>
			</g>
			<g class="st12">
				<path d="M206.3,446.5c0,0,9.5,1.3,10.1,0.8s26.4,0.9,26.4,0.9l-1.4-22.6l-30,8.1L206.3,446.5z"/>
			</g>
			<g>
				<g>
					<path class="st7" d="M109.4,267.4c0,0,68.6,106.3,63.8,178.6l40.9,25.1h30c-1.6-18.8-1.4-49.5-10.6-92.6
						c-23.6-110.9-65.5-111.2-65.5-111.2L109.4,267.4z"/>
				</g>
				<g>
					<path class="st7" d="M241.4,436.5l-68.6,11.7c0.6,2.2-0.5,4.9-2,6.4c-1.5,1.5-3.6,2.2-5.7,2.8c-4,1.1-8.2,1.7-12.4,1.8
						c-2.2,0.1-4.4,0-6.6,0.6c-2.1,0.6-4.2,1.9-5,3.9c-0.9,2-0.1,7.2,5.1,7.2h69.6c-5.2,0-6-5.2-5.1-7.2c0.9-2,2.9-3.3,5-3.9
						s4.4-0.5,6.6-0.6c4.2-0.2,8.3-0.8,12.4-1.8c2.1-0.5,4.2-1.2,5.7-2.8C241.9,453.1,241.7,439,241.4,436.5z"/>
				</g>
				<g>
					<path class="st7" d="M241.3,426.3l-67.4,10c0.6,2.2-0.5,4.9-2,6.4c-1.5,1.5-3.6,2.2-5.7,2.8c-4,1.1-8.2,1.7-12.4,1.8
						c-2.2,0.1-4.4,0-6.6,0.6c-2.1,0.6-4.2,1.9-5,3.9c-0.9,2-0.1,7.2,5.1,7.2h69.6c-5.2,0-6-5.2-5.1-7.2c0.9-2,2.9-3.3,5-3.9
						c2.1-0.6,4.4-0.5,6.6-0.6c4.2-0.2,8.3-0.8,12.4-1.8c2.1-0.5,4.2-1.2,5.7-2.8C243,441.3,241.6,428.8,241.3,426.3z"/>
				</g>
				<g>
					<path class="st7" d="M241,423.9l-68.2,2.3c0.6,2.1-0.5,4.7-2,6.1c-1.5,1.4-3.6,2.1-5.7,2.6c-4,1-8.2,1.6-12.4,1.7
						c-2.2,0.1-4.4,0-6.6,0.6c-2.1,0.5-4.2,1.8-5,3.7c-0.9,1.9-0.1,6.8,5.1,6.8l69.4-0.8c-5.2,0-5.7-4.1-4.9-6
						c0.9-1.9,2.9-3.1,5-3.7s4.4-0.5,6.6-0.6c4.2-0.2,8.3-0.7,12.4-1.7c2.1-0.5,4.2-1.2,5.7-2.6C241.9,430.8,241.3,426.2,241,423.9z
						"/>
				</g>
				<g>
					<path class="st14" d="M134.7,319.4c0,0-8-17.4-9.6-22.2c-1.6-4.8,2.5-7.5,6.2-10.4c3.8-2.9,17.6-4,18.3-1.6
						c0.7,2.5,0.4,6-1.6,6.2c-2,0.2-9.6-0.2-14,5.7c0,0,18.5-4.1,23,0s-3.8,5.7-3.8,5.7s2.5,4,0.2,5.1c-2.2,1.1-14.5,3.6-14.5,3.6
						l-0.2,1.8c0,0,6-0.4,10,0.7c4,1.1,5.8,5.4,5.8,5.4c-0.9,3.3-2.5,3.3-4.7,1.8c-2.2-1.6-3.8-1.8-3.8-1.8s-3.6,4.5-6,4.7
						C137.6,324.3,134.7,319.4,134.7,319.4z"/>
				</g>
				<g class="st12">
					<path d="M164.8,267.2c0,0-14.2,15.6-11.7,40c2.5,24.4,2.4,51.5,2.4,51.5l-8.2-19.9l-5.8-57.2l11.6-12.8L164.8,267.2z"/>
				</g>
				<g>
					<g>
						<g>
							<g>
								<g>
									<path class="st4" d="M164.8,267.2l-58.4,0c0,0-24.1,0.5-24.1,48c0,61.6,14.1,82.6-23.4,117.8l60.6,7.6
										c0,0,28.7-2.8,28.6-54.1c0-23.4-1.1-65-2.4-85C144.8,287,155.6,268.2,164.8,267.2z"/>
								</g>
								<g>
									<g>
										<path class="st8" d="M164.8,267.2c-0.1,0-0.4,0.1-0.9,0.2c-0.6,0.2-1.5,0.4-2.6,1c-2.2,1.2-5,3.7-7.6,7.5
											c-2.7,3.9-5.3,9.2-6.9,15.7c-1.8,6.6-0.4,14.4-0.2,23c0.8,17.2,1.4,37.9,1.7,61.2c0,5.8,0.2,11.8-0.1,18
											c-0.4,6.1-1.2,12.4-2.9,18.6c-1.7,6.2-4.4,12.4-8.6,17.6c-2.1,2.6-4.6,5-7.5,6.9c-2.9,1.9-6.1,3.3-9.6,3.9l0,0l0,0
											c-17.5-2.2-35.9-4.5-54.8-6.9c-2-0.2-4-0.5-5.8-0.7l-0.5-0.1l0.4-0.4c3-2.9,6-5.8,8.7-9c2.7-3.1,5.2-6.4,7.5-9.8
											c4.4-6.9,7.4-14.5,8.6-22.3c1.3-7.8,1.3-15.6,1-23.2c-0.3-7.6-0.9-15-1.3-22.3c-0.5-7.3-0.8-14.3-0.9-21.2
											c-0.1-3.4-0.1-6.8-0.1-10.2c0.1-1.7,0.1-3.3,0.2-5c0.1-1.6,0.1-3.3,0.3-4.9c0.2-1.6,0.3-3.2,0.5-4.8
											c0.1-0.8,0.2-1.6,0.4-2.3c0.1-0.8,0.3-1.5,0.4-2.3c0.1-0.8,0.3-1.5,0.4-2.3c0.2-0.8,0.4-1.5,0.6-2.2
											c0.2-0.7,0.4-1.5,0.6-2.2c0.2-0.7,0.4-1.5,0.7-2.2c2-5.7,5-10.8,9.1-14.5c2-1.9,4.4-3.3,6.8-4.3c1.2-0.5,2.5-0.8,3.8-1
											c1.3-0.1,2.5,0,3.8,0c4.9,0,9.6,0,14,0c8.7,0,16.2,0.1,22.3,0.1C158,267.2,164.1,267.2,164.8,267.2c-0.7,0-6.9,0-19.1,0.1
											c-6.1,0-13.6,0.1-22.3,0.1c-4.3,0-9,0-13.9,0c-4.9-0.6-10.1,1.5-14.1,5.2c-4.1,3.6-7,8.7-9,14.4c-0.3,0.7-0.5,1.4-0.7,2.1
											c-0.2,0.7-0.4,1.5-0.6,2.2c-0.2,0.7-0.4,1.5-0.6,2.2c-0.1,0.8-0.3,1.5-0.4,2.3c-0.1,0.8-0.3,1.5-0.4,2.3
											c-0.1,0.8-0.3,1.5-0.4,2.3c-0.2,1.6-0.3,3.2-0.5,4.8c-0.2,1.6-0.2,3.2-0.3,4.9c-0.1,1.6-0.1,3.3-0.2,4.9
											c0,3.3,0,6.7,0.1,10.2c0.2,6.9,0.5,13.9,1,21.2c0.4,7.2,1,14.7,1.4,22.3c0.3,7.6,0.4,15.4-1,23.3
											c-1.3,7.8-4.2,15.6-8.7,22.5c-2.2,3.5-4.8,6.7-7.5,9.9c-2.7,3.1-5.7,6.1-8.8,9l-0.1-0.4c1.8,0.2,3.8,0.5,5.8,0.7
											c18.9,2.4,37.3,4.7,54.8,6.9l-0.1,0c3.3-0.5,6.5-2,9.3-3.8c2.8-1.8,5.3-4.2,7.4-6.7c4.2-5.2,6.9-11.3,8.6-17.4
											c1.8-6.2,2.6-12.4,2.9-18.5c0.3-6.1,0.2-12.1,0.2-17.9c-0.3-23.3-0.8-44-1.6-61.2c-0.2-4.3-0.4-8.4-0.6-12.2
											c-0.3-3.9,0.1-7.5,0.9-10.8c1.6-6.6,4.3-11.9,7-15.8c2.7-3.9,5.5-6.4,7.7-7.5c1.1-0.6,2-0.9,2.6-1
											c0.3-0.1,0.5-0.1,0.7-0.1C164.7,267.2,164.8,267.2,164.8,267.2z"/>
									</g>
								</g>
							</g>
						</g>
					</g>
					<g class="st12">
						<path d="M102.2,427.4h9.8c0,0,0.5,13,11,12.1c0,0-2.2,1.5-5.2,1.1C114.8,440.2,105.5,442.5,102.2,427.4z"/>
					</g>
					<g>
						<g>
							<g>
								<path class="st7" d="M30.8,420.8c0,0-1.5,18.7,21.7,19.8c23.2,1.1,65.4,0,65.4,0s-14.6-2.6-14.6-18.6L30.8,420.8z"/>
							</g>
							<g>
								<g>
									<path class="st8" d="M30.8,420.8c0,0,0.1,0,0.3,0c0.3,0,0.6,0,1,0c0.9,0,2.3,0,4,0c3.5,0,8.7,0.1,15.1,0.2
										c12.9,0.2,31.1,0.5,52,0.8l0.2,0l0,0.2c0,4,1.1,8.2,3.6,11.6c2.6,3.4,6.5,5.7,10.8,6.7l2,0.5l-2,0.1c0,0-0.1,0-0.1,0
										c-13.6,0.3-26.5,0.5-38.3,0.5c-5.9,0-11.5-0.1-16.7-0.2c-5.2-0.2-10.1-0.2-14.5-0.8c-4.4-0.7-8.3-2.3-11-4.6
										c-2.8-2.2-4.4-5-5.3-7.3c-0.9-2.3-1.1-4.3-1.2-5.6c0-0.7,0-1.2,0-1.5C30.8,421,30.8,420.8,30.8,420.8c0,0,0,0.2,0,0.5
										c0,0.3,0,0.8,0.1,1.5c0.1,1.3,0.4,3.2,1.3,5.5c0.9,2.3,2.5,5,5.3,7.2c2.7,2.2,6.5,3.8,10.9,4.5c4.4,0.6,9.3,0.6,14.5,0.7
										c5.2,0.1,10.8,0.1,16.7,0.1c11.8,0,24.7-0.2,38.3-0.5c0,0,0.1,0,0.1,0l0,0.5c-2.2-0.5-4.3-1.4-6.2-2.6
										c-1.9-1.2-3.6-2.6-4.9-4.4c-2.7-3.5-3.7-7.8-3.7-11.9l0.2,0.3c-20.9-0.4-38.9-0.7-51.8-1c-6.4-0.1-11.6-0.2-15.1-0.3
										c-1.8,0-3.1-0.1-4.1-0.1c-0.5,0-0.8,0-1.1,0C30.9,420.8,30.8,420.8,30.8,420.8z"/>
								</g>
							</g>
						</g>
					</g>
					<g>
						<g>
							<path class="st8" d="M133.8,350.5c0,0.3-5.3,0.5-11.8,0.5c-6.5,0-11.8-0.2-11.8-0.5c0-0.3,5.3-0.5,11.8-0.5
								C128.5,350,133.8,350.3,133.8,350.5z"/>
						</g>
					</g>
					<g>
						<g>
							<path class="st8" d="M93.1,350.6c0-0.3,1.5-0.5,3.3-0.5c1.8,0,3.3,0.2,3.3,0.5s-1.5,0.5-3.3,0.5
								C94.5,351.1,93.1,350.9,93.1,350.6z"/>
						</g>
					</g>
					<g>
						<g>
							<path class="st8" d="M135.2,341.9c0,0.3-5.3,0.5-11.8,0.5c-6.5,0-11.8-0.2-11.8-0.5c0-0.3,5.3-0.5,11.8-0.5
								C129.9,341.5,135.2,341.7,135.2,341.9z"/>
						</g>
					</g>
					<g>
						<g>
							<path class="st8" d="M93.1,342.4c0-0.3,1.5-0.5,3.3-0.5c1.8,0,3.3,0.2,3.3,0.5c0,0.3-1.5,0.5-3.3,0.5
								C94.5,342.9,93.1,342.7,93.1,342.4z"/>
						</g>
					</g>
					<g>
						<g>
							<path class="st8" d="M134.9,334.7c0,0.3-5.3,0.5-11.8,0.5c-6.5,0-11.8-0.2-11.8-0.5c0-0.3,5.3-0.5,11.8-0.5
								C129.7,334.2,134.9,334.4,134.9,334.7z"/>
						</g>
					</g>
					<g>
						<g>
							<path class="st8" d="M93.1,334.8c0-0.3,1.5-0.5,3.3-0.5c1.8,0,3.3,0.2,3.3,0.5c0,0.3-1.5,0.5-3.3,0.5
								C94.5,335.2,93.1,335,93.1,334.8z"/>
						</g>
					</g>
					<g>
						<g>
							<path class="st8" d="M134,326.1c0,0.3-5.3,0.5-11.8,0.5c-6.5,0-11.8-0.2-11.8-0.5c0-0.3,5.3-0.5,11.8-0.5
								C128.8,325.7,134,325.9,134,326.1z"/>
						</g>
					</g>
					<g>
						<g>
							<path class="st8" d="M91.9,326.6c0-0.3,1.5-0.5,3.3-0.5c1.8,0,3.3,0.2,3.3,0.5c0,0.3-1.5,0.5-3.3,0.5
								C93.4,327.1,91.9,326.9,91.9,326.6z"/>
						</g>
					</g>
					<g>
						<g>
							<path class="st8" d="M133.8,318.9c0,0.3-5.3,0.5-11.8,0.5c-6.5,0-11.8-0.2-11.8-0.5c0-0.3,5.3-0.5,11.8-0.5
								C128.5,318.4,133.8,318.6,133.8,318.9z"/>
						</g>
					</g>
					<g>
						<g>
							<path class="st8" d="M91.9,319c0-0.3,1.5-0.5,3.3-0.5c1.8,0,3.3,0.2,3.3,0.5c0,0.3-1.5,0.5-3.3,0.5
								C93.4,319.4,91.9,319.2,91.9,319z"/>
						</g>
					</g>
					<g>
						<g>
							<path class="st8" d="M132.9,310.3c0,0.3-5.3,0.5-11.8,0.5c-6.5,0-11.8-0.2-11.8-0.5c0-0.3,5.3-0.5,11.8-0.5
								C127.7,309.9,132.9,310.1,132.9,310.3z"/>
						</g>
					</g>
					<g>
						<g>
							<path class="st8" d="M90.8,310.8c0-0.3,1.5-0.5,3.3-0.5c1.8,0,3.3,0.2,3.3,0.5c0,0.3-1.5,0.5-3.3,0.5
								C92.3,311.3,90.8,311.1,90.8,310.8z"/>
						</g>
					</g>
					<g>
						<g>
							<path class="st8" d="M132.7,303.1c0,0.3-5.3,0.5-11.8,0.5c-6.5,0-11.8-0.2-11.8-0.5c0-0.3,5.3-0.5,11.8-0.5
								C127.4,302.6,132.7,302.8,132.7,303.1z"/>
						</g>
					</g>
					<g>
						<g>
							<path class="st8" d="M134.1,295.6c0,0.3-5.3,0.5-11.8,0.5c-6.5,0-11.8-0.2-11.8-0.5c0-0.3,5.3-0.5,11.8-0.5
								C128.8,295.1,134.1,295.4,134.1,295.6z"/>
						</g>
					</g>
					<g>
						<g>
							<path class="st8" d="M90.8,303.2c0-0.3,1.5-0.5,3.3-0.5c1.8,0,3.3,0.2,3.3,0.5c0,0.3-1.5,0.5-3.3,0.5
								C92.3,303.6,90.8,303.4,90.8,303.2z"/>
						</g>
					</g>
					<g>
						<g>
							<path class="st8" d="M91.9,295.2c0-0.3,1.5-0.5,3.3-0.5c1.8,0,3.3,0.2,3.3,0.5c0,0.3-1.5,0.5-3.3,0.5
								C93.4,295.6,91.9,295.4,91.9,295.2z"/>
						</g>
					</g>
					<g>
						<g>
							<path class="st8" d="M135.6,288.3c0,0.3-5.3,0.5-11.8,0.5c-6.5,0-11.8-0.2-11.8-0.5c0-0.3,5.3-0.5,11.8-0.5
								C130.4,287.9,135.6,288.1,135.6,288.3z"/>
						</g>
					</g>
					<g>
						<g>
							<path class="st8" d="M93.4,287.9c0-0.3,1.5-0.5,3.3-0.5c1.8,0,3.3,0.2,3.3,0.5c0,0.3-1.5,0.5-3.3,0.5
								C94.9,288.4,93.4,288.1,93.4,287.9z"/>
						</g>
					</g>
					<g>
						<g>
							<path class="st8" d="M137.2,281.1c0,0.3-5.3,0.5-11.8,0.5c-6.5,0-11.8-0.2-11.8-0.5c0-0.3,5.3-0.5,11.8-0.5
								C131.9,280.6,137.2,280.8,137.2,281.1z"/>
						</g>
					</g>
					<g>
						<g>
							<path class="st8" d="M94.9,280.6c0-0.3,1.5-0.5,3.3-0.5c1.8,0,3.3,0.2,3.3,0.5c0,0.3-1.5,0.5-3.3,0.5
								C96.4,281.1,94.9,280.9,94.9,280.6z"/>
						</g>
					</g>
					<g>
						<g>
							<path class="st8" d="M142.7,274.5c0,0.3-5.3,0.5-11.8,0.5c-6.5,0-11.8-0.2-11.8-0.5c0-0.3,5.3-0.5,11.8-0.5
								C137.4,274,142.7,274.2,142.7,274.5z"/>
						</g>
					</g>
					<g>
						<g>
							<path class="st8" d="M100.4,274c0-0.3,1.5-0.5,3.3-0.5c1.8,0,3.3,0.2,3.3,0.5c0,0.3-1.5,0.5-3.3,0.5
								C101.9,274.5,100.4,274.3,100.4,274z"/>
						</g>
					</g>
					<g>
						<g>
							<path class="st8" d="M133.8,359.9c0,0.3-5.3,0.5-11.8,0.5c-6.5,0-11.8-0.2-11.8-0.5c0-0.3,5.3-0.5,11.8-0.5
								C128.5,359.4,133.8,359.6,133.8,359.9z"/>
						</g>
					</g>
					<g>
						<g>
							<path class="st8" d="M93.1,360c0-0.3,1.5-0.5,3.3-0.5c1.8,0,3.3,0.2,3.3,0.5c0,0.3-1.5,0.5-3.3,0.5
								C94.5,360.5,93.1,360.3,93.1,360z"/>
						</g>
					</g>
					<g>
						<g>
							<path class="st8" d="M134.9,369.1c0,0.3-5.3,0.5-11.8,0.5c-6.5,0-11.8-0.2-11.8-0.5c0-0.3,5.3-0.5,11.8-0.5
								C129.7,368.6,134.9,368.8,134.9,369.1z"/>
						</g>
					</g>
					<g>
						<g>
							<path class="st8" d="M94.3,369.2c0-0.3,1.5-0.5,3.3-0.5c1.8,0,3.3,0.2,3.3,0.5c0,0.3-1.5,0.5-3.3,0.5
								C95.7,369.7,94.3,369.5,94.3,369.2z"/>
						</g>
					</g>
					<g>
						<g>
							<path class="st8" d="M135.3,377.1c0,0.3-5.3,0.5-11.8,0.5c-6.5,0-11.8-0.2-11.8-0.5c0-0.3,5.3-0.5,11.8-0.5
								C130.1,376.6,135.3,376.8,135.3,377.1z"/>
						</g>
					</g>
					<g>
						<g>
							<path class="st8" d="M94.6,377.1c0-0.3,1.5-0.5,3.3-0.5c1.8,0,3.3,0.2,3.3,0.5c0,0.3-1.5,0.5-3.3,0.5
								C96.1,377.6,94.6,377.4,94.6,377.1z"/>
						</g>
					</g>
					<g>
						<g>
							<path class="st8" d="M135.7,385c0,0.3-5.3,0.5-11.8,0.5c-6.5,0-11.8-0.2-11.8-0.5c0-0.3,5.3-0.5,11.8-0.5
								C130.4,384.5,135.7,384.7,135.7,385z"/>
						</g>
					</g>
					<g>
						<g>
							<path class="st8" d="M95,385.1c0-0.3,1.5-0.5,3.3-0.5c1.8,0,3.3,0.2,3.3,0.5c0,0.3-1.5,0.5-3.3,0.5
								C96.5,385.6,95,385.3,95,385.1z"/>
						</g>
					</g>
					<g>
						<g>
							<path class="st8" d="M136.1,392.9c0,0.3-5.3,0.5-11.8,0.5c-6.5,0-11.8-0.2-11.8-0.5c0-0.3,5.3-0.5,11.8-0.5
								C130.8,392.4,136.1,392.7,136.1,392.9z"/>
						</g>
					</g>
					<g>
						<g>
							<path class="st8" d="M95.4,393c0-0.3,1.5-0.5,3.3-0.5c1.8,0,3.3,0.2,3.3,0.5c0,0.3-1.5,0.5-3.3,0.5
								C96.9,393.5,95.4,393.3,95.4,393z"/>
						</g>
					</g>
					<g>
						<g>
							<path class="st8" d="M136.2,400.7c0,0.3-5.3,0.5-11.8,0.5c-6.5,0-11.8-0.2-11.8-0.5c0-0.3,5.3-0.5,11.8-0.5
								C130.9,400.2,136.2,400.4,136.2,400.7z"/>
						</g>
					</g>
					<g>
						<g>
							<path class="st8" d="M95.5,400.7c0-0.3,1.5-0.5,3.3-0.5c1.8,0,3.3,0.2,3.3,0.5c0,0.3-1.5,0.5-3.3,0.5
								C97,401.2,95.5,401,95.5,400.7z"/>
						</g>
					</g>
					<g>
						<g>
							<path class="st8" d="M134.9,408.3c0,0.3-5.3,0.5-11.8,0.5c-6.5,0-11.8-0.2-11.8-0.5c0-0.3,5.3-0.5,11.8-0.5
								C129.7,407.9,134.9,408.1,134.9,408.3z"/>
						</g>
					</g>
					<g>
						<g>
							<path class="st8" d="M94.3,408.4c0-0.3,1.5-0.5,3.3-0.5c1.8,0,3.3,0.2,3.3,0.5c0,0.3-1.5,0.5-3.3,0.5
								C95.7,408.9,94.3,408.7,94.3,408.4z"/>
						</g>
					</g>
					<g>
						<g>
							<path class="st8" d="M131.9,416.5c0,0.3-5.3,0.5-11.8,0.5c-6.5,0-11.8-0.2-11.8-0.5c0-0.3,5.3-0.5,11.8-0.5
								C126.7,416,131.9,416.2,131.9,416.5z"/>
						</g>
					</g>
					<g>
						<g>
							<path class="st8" d="M91.2,416.6c0-0.3,1.5-0.5,3.3-0.5c1.8,0,3.3,0.2,3.3,0.5c0,0.3-1.5,0.5-3.3,0.5
								C92.7,417.1,91.2,416.8,91.2,416.6z"/>
						</g>
					</g>
					<g>
						<g>
							<path class="st8" d="M129.7,423.9c0,0.3-5.3,0.5-11.8,0.5c-6.5,0-11.8-0.2-11.8-0.5c0-0.3,5.3-0.5,11.8-0.5
								C124.4,423.4,129.7,423.7,129.7,423.9z"/>
						</g>
					</g>
				</g>
				<g>
					<g>
						<path class="st8" d="M242.8,448.1c0,0-0.1,0-0.2,0c-0.2,0-0.4,0-0.7,0c-0.7,0-1.6-0.1-2.8-0.1c-2.4-0.1-5.8-0.3-10.1-0.4
							c-8.5-0.3-20.4-0.6-33.4-0.5c-13,0.1-24.9,0.3-33.4,0.4c-4.2,0-7.7,0.1-10.1,0.1c-1.2,0-2.1,0-2.8,0c-0.3,0-0.5,0-0.7,0
							c-0.2,0-0.2,0-0.2,0c0,0,0.1,0,0.2,0c0.2,0,0.4,0,0.7,0c0.7,0,1.6-0.1,2.8-0.1c2.4-0.1,5.9-0.2,10.1-0.3
							c8.5-0.2,20.4-0.5,33.4-0.6c13.1-0.1,24.9,0.2,33.4,0.6c4.3,0.2,7.7,0.4,10.1,0.6c1.2,0.1,2.1,0.2,2.7,0.2
							c0.3,0,0.5,0.1,0.7,0.1C242.7,448.1,242.8,448.1,242.8,448.1z"/>
					</g>
				</g>
				<g>
					<g>
						<path class="st8" d="M239.8,458.8c0,0.1-19.2,0.3-43,0.4c-23.7,0.1-43,0-43-0.1c0-0.1,19.2-0.3,43-0.4
							C220.6,458.6,239.8,458.7,239.8,458.8z"/>
					</g>
				</g>
				<g>
					<g>
						<path class="st8" d="M231.6,427.4c0,0,0.3,0,0.7,0.2c0.5,0.2,1.2,0.4,2,0.6c0.4,0.1,0.9,0.3,1.5,0.5c0.5,0.2,1.2,0.3,1.6,1
							c0.2,0.4,0.1,0.8-0.3,1.1c-0.3,0.3-0.7,0.4-1,0.5c-0.7,0.2-1.5,0.3-2.3,0.5c-3.2,0.7-7.1,1.3-11.5,1.7
							c-4.4,0.4-9.2,0.6-14.2,0.7c-10.1,0.1-19.2,0.3-25.8,0.3c-3.3,0-5.9,0-7.8,0c-0.9,0-1.6,0-2.1,0c-0.5,0-0.7,0-0.7,0
							c0,0,0.3,0,0.7-0.1c0.5,0,1.2,0,2.1-0.1c1.9-0.1,4.6-0.1,7.8-0.2c6.7-0.1,15.8-0.3,25.8-0.5c5-0.1,9.8-0.3,14.2-0.7
							c4.3-0.4,8.2-0.9,11.5-1.6c0.8-0.2,1.6-0.3,2.3-0.5c0.3-0.1,0.7-0.2,0.9-0.4c0.2-0.2,0.3-0.5,0.2-0.7
							c-0.3-0.5-0.9-0.7-1.4-0.9c-0.5-0.2-1-0.4-1.5-0.5c-0.8-0.3-1.5-0.5-2-0.7C231.8,427.5,231.6,427.4,231.6,427.4z"/>
					</g>
				</g>
			</g>
		</g>
	</g>
</g>
</svg>
